<?xml version="1.0" encoding="UTF-8"?>
<svg id="Calque_1" data-name="Calque 1" xmlns="http://www.w3.org/2000/svg" xmlns:xlink="http://www.w3.org/1999/xlink" viewBox="0 0 1380 781">
  <defs>
    <style>
      .cls-1 {
        fill: #bd8f0b;
      }

      .cls-2 {
        fill: #133838;
      }

      .cls-3, .cls-4 {
        fill: none;
      }

      .cls-5 {
        fill: #f3ecd9;
      }

      .cls-4 {
        clip-path: url(#clippath);
      }
    </style>
    <clipPath id="clippath">
      <rect class="cls-3" x="532.38" y="336" width="315.24" height="109"/>
    </clipPath>
  </defs>
  <rect class="cls-5" x="-13" y="-8" width="1408" height="800"/>
  <g class="cls-4">
    <path class="cls-2" d="m631.63,408.12c-.15,5.26-.26,7.89-.43,13.14-.07,1.66.17,3.08.72,4.27.55,1.18,1.46,1.93,2.7,2.25-.01.32-.02.48-.03.81-5.05.02-10.08.02-15.1,0,.02-.32.02-.48.04-.81,2.22-.56,3.54-2.75,4.01-6.52.11-.9.36-2.79.43-5.42.02-.83-.04-1.62-.11-2.31-.07-.68-.21-1.43-.42-2.23-.21-.81-.55-1.48-1.03-2.03-.48-.55-1.08-.92-1.8-1.12,0-.1.01-.24.02-.44,0-.2.02-.33.02-.4h.64c1.83-.29,2.9-1.07,3.21-2.34.05-.17.1-.41.15-.71.05-.31.08-.51.11-.6.41-2.22,1.21-3.98,2.41-5.27.98-1.05,2.23-1.75,3.76-2.11,1.53-.35,2.95-.32,4.25.06,1.38.4,2.54,1.08,3.42,2.07.88.99,1.3,2.15,1.27,3.5-.02,1-.28,1.85-.77,2.56-.49.71-1.06,1.21-1.71,1.5-.65.29-1.34.44-2.07.44-.57,0-1.09-.09-1.57-.27-.48-.18-.88-.43-1.2-.75-.32-.32-.57-.71-.77-1.14-.29-.6-.45-1.26-.43-1.94.03-1.1.43-2.04,1.2-2.82.77-.78,1.68-1.17,2.73-1.17.23,0,.46.02.67.07-.18-.46-.48-.82-.91-1.06-.43-.24-.91-.35-1.45-.33-1.59.07-2.85.87-3.74,2.38-.88,1.5-1.04,3.04-.49,4.58.69,1.92,2.32,3.03,4.91,3.3.35.03.73.04,1.13.04-.01.34-.02.51-.03.84h-3.76Z"/>
    <path class="cls-2" d="m633.95,417.46c.27-3.23,1.84-5.9,4.66-7.95,2.35-1.71,4.91-2.59,7.65-2.6,2.71-.01,4.67.88,5.82,2.64.74,1.12,1.04,2.52.87,4.17-.18,1.83-1.05,3.44-2.6,4.81s-3.79,2.23-6.73,2.54c1.01,1.37,2.27,2.22,3.75,2.56,1.48.34,3.11.04,4.87-.92.18.44.27.66.45,1.1-1.37,1.88-2.99,3.25-4.87,4.1-1.88.85-3.91,1.15-5.93.81-2.51-.43-4.57-1.81-6.04-3.97-1.47-2.16-2.1-4.61-1.88-7.3m7.73-2.67c.05,2.31.47,4.08,1.29,5.27.91-.76,1.57-1.77,1.98-3.04.41-1.27.59-2.59.53-3.95-.05-1.24-.28-2.31-.66-3.2-.38-.89-.86-1.34-1.39-1.37-.48-.03-.92.58-1.28,1.89-.36,1.31-.52,2.78-.48,4.41"/>
    <path class="cls-2" d="m695.33,405.63c1.25,0,2.31-.45,3.17-1.34.87-.89,1.3-1.96,1.3-3.2,0-1.25-.43-2.31-1.3-3.2-.87-.89-1.92-1.34-3.17-1.34s-2.31.45-3.18,1.34c-.87.89-1.31,1.96-1.31,3.2s.44,2.31,1.31,3.2c.87.89,1.94,1.34,3.18,1.34"/>
    <path class="cls-2" d="m718.26,407.28c0,.34,0,.51.01.84.7.24,1.31.72,1.83,1.43.52.71.89,1.51,1.1,2.42.21.9.21,1.84.01,2.82-.43,1.9-.64,2.86-1.07,4.76-.58,2.54-1.33,3.73-2.22,3.59-.31-.05-.6-.17-.86-.37-.26-.2-.48-.44-.66-.73-.19-.29-.36-.67-.52-1.14-.16-.46-.3-.93-.4-1.39-.1-.46-.22-1.01-.35-1.65-.74-4.23-1.1-6.35-1.82-10.58-3.83.01-5.74.02-9.59.03-.53,0-1.07.05-1.59.17-2.65.57-4.91.83-6.83.84-1.99.01-4.38-.3-7.13-.94-.29-.07-.58-.1-.88-.1h-2.2c-.81,0-1.47-.66-1.47-1.48,0-2.44,0-3.66,0-6.09,0-.29-.01-.59-.04-.88-.24-1.78-1.03-3.26-2.34-4.45-1.32-1.18-2.87-1.78-4.65-1.78-1.37,0-2.63.37-3.77,1.1-.69.39-1.24.94-1.65,1.65-.41.71-.61,1.48-.61,2.31,0,1.27.43,2.34,1.29,3.22.86.88,1.91,1.32,3.15,1.32s2.29-.44,3.16-1.32c1-1.01,1.42-2.27,1.27-3.8-.05-.47-.17-.93-.38-1.35-.58-1.15-1.42-1.92-2.52-2.33,1.19.03,2.28.37,3.28,1.04.68.46,1.27,1.06,1.71,1.75.65,1.02.98,2.14.98,3.36,0,.98-.22,1.88-.65,2.71-.44.83-1.02,1.51-1.76,2.05-.74.54-1.49.98-2.26,1.34-.77.35-1.59.63-2.46.82-.89.24-2.02.38-3.37.42-1.36.04-2.71.01-4.05-.07-1.34-.09-2.68-.14-4.02-.17-1.34-.02-2.6.07-3.78.27-1.18.21-2.13.6-2.82,1.12-.92.69-1.57,1.51-1.89,2.47-.32.96-.33,1.82-.03,2.58.23.68.61,1.29,1.17,1.81.55.52,1.27,1.07,2.15,1.63.07.02.14.05.2.09.06.04.11.07.16.09.05.03.11.06.18.11.85.57,1.55.99,2,1.28.45.29,1.05.73,1.79,1.3.74.57,1.29,1.09,1.66,1.56.37.46.69,1.02.98,1.67.28.65.42,1.3.41,1.96-.01.93-.33,1.75-.95,2.45-.63.71-1.37,1.19-2.24,1.45-.86.26-1.7.29-2.49.09-.77-.19-1.35-.66-1.73-1.39.12.02.24.04.36.04,1.19,0,2.2-.41,3.03-1.24.83-.83,1.26-1.84,1.27-3.02.02-1.18-.38-2.19-1.19-3.02-.81-.83-1.8-1.25-2.98-1.25-.34,0-.69.05-1.05.15-1.09.2-1.95.69-2.59,1.48-.64.79-1,1.67-1.07,2.64-.07.96.12,1.95.56,2.95.44,1,1.11,1.78,1.99,2.34,1.44.92,3.37,1.45,5.79,1.57,2.42.12,4.61-.2,6.55-.99,1.36-.55,2.45-1.38,3.24-2.47.8-1.09,1.25-2.24,1.35-3.46.11-1.22-.12-2.45-.68-3.7-.56-1.25-1.44-2.31-2.6-3.19-.1-.07-.47-.39-1.13-.95s-1.46-1.23-2.4-2c-.94-.77-1.74-1.42-2.41-1.96-.43-.34-.69-.7-.78-1.08-.09-.38-.02-.71.23-1.01.39-.54,1.25-.9,2.58-1.08,1.33-.18,2.68-.18,4.05,0,1.37.18,2.34.47,2.92.86,1.44,1.1,2.25,3.44,2.42,7.03-.03,1.73-.06,4.16-.08,7.29,0,1.6.6,2.97,1.82,4.09,1,.91,2.33,1.37,3.69,1.37h5.98c5.08.02,10.34.02,15.43,0,0-.32,0-.48,0-.81-2.22-.59-3.46-2.77-3.75-6.52-.17-2.22-.18-4.45-.02-6.66.23-3.2,1.12-5.24,2.74-6.12.55-.3,1.21-.3,1.79-.07.49.2.91.45,1.28.75.58.48,1.03,1.07,1.35,1.78.32.71.58,1.59.78,2.64.44,2.67.66,4,1.11,6.66.02.1.06.27.11.51.13.78.23,1.37.31,1.76.08.39.2.92.36,1.59.16.67.32,1.18.47,1.54s.35.76.61,1.23c.26.46.54.81.83,1.04.29.23.66.45,1.1.64.44.2.92.31,1.42.37.7.07,1.38-.02,2.02-.27.64-.26,1.2-.63,1.68-1.14.48-.5.92-1.06,1.32-1.67.4-.61.76-1.29,1.08-2.05.31-.76.57-1.45.76-2.09.19-.63.37-1.28.53-1.94.55-2.35.91-4.04,1.14-4.98.19-.8.36-1.43.47-1.89.11-.45.3-1,.56-1.65.26-.65.54-1.15.83-1.52.29-.37.67-.71,1.14-1.04.47-.33,1.01-.54,1.63-.64,0-.31,0-.46-.01-.77h-8.36Zm-26.8,13.99c-.17,2.29-.75,4-1.69,5.11-1.15,1.36-3.17,1.45-4.4.16-.28-.29-.52-.63-.72-1.01-.61-1.18-.93-2.61-.94-4.27-.06-5.7-.07-9.6-.08-11.67,0-.82.65-1.48,1.46-1.49.72,0,1.09,0,1.81-.02.89,0,1.78.26,2.45.85,1.21,1.06,1.9,2.96,2.11,5.66.17,2.22.17,4.45,0,6.66"/>
    <path class="cls-2" d="m751.02,430.78c.01.32.02.48.03.81-.99,0-1.93-.15-2.81-.46s-1.63-.65-2.25-1.03c-.62-.38-1.49-.73-2.61-1.04-1.12-.32-2.36-.48-3.71-.48-.03-1.05-.05-1.58-.08-2.64-1.54,2.37-3.9,3.36-6.84,3.22-1.16-.05-2.21-.36-3.07-1.01-.86-.65-1.45-1.42-1.77-2.31-.32-.89-.34-1.86-.06-2.91.28-1.05.89-1.98,1.83-2.75,1.02-.83,2.34-1.37,3.9-1.63,1.56-.26,3.47-.38,5.72-.38-.02-.51-.06-1.48-.12-2.91-.06-1.43-.1-2.41-.12-2.95-.04-1.34-.48-2.66-1.3-3.95-.82-1.29-1.82-2.1-3.01-2.42,1.06-.24,2.11-.35,3.15-.33,1.04.02,2.04.24,3.01.66.97.41,1.84.95,2.62,1.59.78.65,1.42,1.48,1.94,2.49.51,1.01.81,2.13.92,3.31.19,2.13.36,4.32.46,6.52.09,2.05.13,3.08.21,5.13.13,1.49.48,2.69,1.06,3.59.58.9,1.55,1.53,2.91,1.87m-19.89-21.09c.66-.44,1.4-.66,2.23-.66,1.12,0,2.09.41,2.92,1.23s1.27,1.8,1.3,2.95c.02.54-.06,1.06-.23,1.57-.39,1.07-1.11,1.84-2.15,2.31-.4.2-.83.33-1.28.4-.45.07-.91.09-1.38.04-.47-.05-.93-.16-1.39-.35-.46-.18-.9-.45-1.33-.81-.43-.35-.8-.77-1.13-1.26-1.05-1.71-1.23-3.48-.57-5.31.66-1.83,1.91-3.35,3.73-4.54,1.46-.95,3.16-1.59,5.05-1.9,1.89-.32,3.74-.36,5.53-.13,1.8.23,3.56.68,5.3,1.34,1.43.54,2.43.9,3.01,1.1.57.2,1.41.4,2.52.6,1.1.21,2.2.32,3.17.24.77-.07,1.45-.4,1.95-.92.51-.51.73-1.1.66-1.78-.06-.67-.45-1.26-1.14-1.74-.74-.51-1.32-1.08-1.73-1.7-.41-.62-.62-1.22-.65-1.79-.03-.57.07-1.14.28-1.68.21-.55.55-1.02,1.02-1.41.47-.39.99-.71,1.54-.95.56-.24,1.19-.35,1.9-.33.71.02,1.4.2,2.05.51.87.42,1.59,1.03,2.17,1.85.58.82.95,1.81,1.11,2.98.16,1.17-.02,2.45-.54,3.81-.52,1.34-1.31,2.38-2.37,3.11-1.06.73-2.3,1.17-3.73,1.32.1,2.1.16,6.37.64,12.27.03.43.1.85.14,1.25.5,3.76,1.85,5.92,4.07,6.48.02.32.03.48.04.81-5.57-1.29-10.59-1.29-15.13,0-.01-.32-.02-.48-.03-.81,2.13-.56,3.27-2.71,3.4-6.44.02-.59-.02-1.62-.11-3.11-.1-1.49-.16-2.54-.19-3.15-.11-2.32-.78-4.28-1.99-5.9-1.21-1.61-2.78-2.86-4.69-3.7-2.28-1.01-4.58-1.43-6.85-1.28-2.28.15-4.15.81-5.61,1.98-.61.44-1.03.98-1.28,1.63-.25.65-.33,1.28-.24,1.89m8.29,13.14c.01-.5-.02-1.78-.1-3.81-.79.1-1.46.41-2.02.93-.56.52-1.02,1.17-1.27,1.89-.31.88-.32,1.77-.1,2.53.21.76.58,1.31,1.1,1.65.22.15.43.23.64.26.21.03.41-.02.61-.15.2-.12.38-.31.54-.57.16-.26.29-.62.4-1.08.11-.46.18-1.02.2-1.65"/>
    <path class="cls-2" d="m682.09,443.57c.45-.24.94-.39,1.5-.47.56-.08,1.07-.1,1.54-.08.47.03.93.05,1.37.06.44.01.84-.04,1.2-.16.36-.12.64-.33.85-.64h.35c-.1.94-.32,1.62-.67,2.05-.35.43-.81.65-1.36.66-.3,0-.7-.03-1.21-.13-.51-.09-.97-.18-1.38-.26-.41-.08-.86-.1-1.36-.07-.49.04-.92.16-1.28.38h-.66c0-.11,0-.17.01-.29,0-.41.06-.81.19-1.19.13-.38.31-.73.53-1.02.22-.3.47-.6.76-.9.28-.3.57-.57.87-.82.3-.25.59-.51.88-.78.29-.28.56-.54.79-.79.24-.25.43-.52.6-.83.16-.3.25-.61.28-.91.04-.45-.12-.8-.51-1.04s-.81-.28-1.29-.14c-.5.15-.93.5-1.28,1.07-.35.56-.52,1.34-.53,2.31h-.35c-.18-.99-.27-1.49-.45-2.48.59-.61,1.36-1.03,2.28-1.22.76-.16,1.5-.17,2.19-.05.69.11,1.24.32,1.64.62.69.5.99,1.14.89,1.93-.05.44-.19.84-.4,1.17-.21.34-.48.61-.8.83-.32.21-.67.41-1.04.58-.38.17-.77.34-1.18.51-.41.16-.8.33-1.17.51-.37.17-.72.4-1.05.66-.33.27-.59.57-.77.91"/>
    <path class="cls-2" d="m689.32,440.3c0-.7.14-1.33.42-1.91.28-.57.65-1.04,1.12-1.4.46-.36.99-.64,1.57-.83.58-.2,1.19-.29,1.81-.28.62,0,1.21.1,1.78.29.56.19,1.08.47,1.54.85.46.37.82.86,1.1,1.48.27.61.4,1.3.4,2.06,0,.47-.07.91-.19,1.32-.13.41-.31.77-.53,1.09-.23.31-.49.6-.8.85-.3.25-.63.45-1,.62-.36.16-.74.28-1.14.37-.39.08-.8.13-1.21.14-.49,0-.98-.06-1.44-.17-.46-.11-.9-.3-1.32-.54-.41-.25-.78-.55-1.09-.9-.31-.35-.56-.79-.74-1.3-.18-.52-.28-1.08-.28-1.71m4.86-4.09c-.51.01-.95.38-1.29,1.11-.35.73-.53,1.76-.55,3.07-.02,1.34.15,2.37.5,3.1.35.73.8,1.1,1.34,1.09.53,0,.97-.36,1.31-1.06.34-.7.52-1.71.54-3.02.02-1.35-.15-2.42-.5-3.18-.35-.77-.8-1.14-1.35-1.12"/>
    <path class="cls-2" d="m700.35,443.57c.45-.24.95-.39,1.5-.47.56-.08,1.07-.1,1.54-.08.47.03.93.05,1.37.06.44.01.84-.04,1.2-.16.36-.12.64-.33.85-.64h.35c-.1.94-.33,1.62-.68,2.05-.36.43-.81.65-1.36.66-.3,0-.7-.03-1.21-.13-.51-.09-.97-.18-1.38-.26-.41-.08-.86-.1-1.36-.07-.49.04-.92.16-1.28.38h-.66c0-.11,0-.17.01-.29,0-.41.07-.81.2-1.19.13-.38.31-.73.53-1.02.22-.3.48-.6.76-.9.29-.3.58-.57.87-.82.3-.25.59-.51.89-.78.29-.28.56-.54.8-.79.24-.25.44-.52.6-.83.16-.3.25-.61.28-.91.04-.45-.12-.8-.5-1.04-.38-.24-.81-.28-1.29-.14-.5.15-.93.5-1.28,1.07-.35.56-.52,1.34-.53,2.31h-.35c-.18-.99-.27-1.49-.44-2.48.6-.61,1.37-1.03,2.28-1.22.76-.16,1.5-.17,2.19-.05.69.11,1.24.32,1.64.62.69.5.99,1.14.89,1.93-.05.44-.19.84-.4,1.17-.22.34-.48.61-.8.83-.32.21-.67.41-1.04.58-.38.17-.77.34-1.18.51-.41.16-.8.33-1.18.51-.37.17-.73.4-1.06.66-.33.27-.59.57-.78.91"/>
    <path class="cls-2" d="m714.14,442.28c.12,1.27.56,2,1.32,2.2,0,.11,0,.17,0,.28-1.83,0-3.65,0-5.47,0,0-.11,0-.17,0-.28.77-.2,1.22-.94,1.34-2.2h-3.42c0-.15,0-.23,0-.38,2.35-2.34,3.53-3.52,5.86-5.86h.3c0,1.6,0,2.41,0,4.01,0,.73,0,1.37.05,1.94h.77c0,.11,0,.17,0,.29h-.76Zm-2.78-.29c.03-.36.04-.77.04-1.23,0-.78,0-1.17,0-1.95-1.26,1.27-1.9,1.91-3.17,3.19h3.12Z"/>
    <path class="cls-1" d="m807.65,442.9c5.16.25,7.74.38,12.9.63-1.71-12.4-4.3-24.57-6.73-36.84-1.6-1.52-2.39-2.28-3.95-3.79-2.89,2.02-4.33,3.03-7.19,5.06-.02,8.79.12,17.58-.14,26.37,2.11,3.43,3.15,5.15,5.12,8.58"/>
    <path class="cls-1" d="m609.83,388.39h16.6c3.8-4.4,5.66-6.6,9.4-11-1.98-11.49-4.32-22.91-6.28-34.4-2.79-2.22-4.18-3.32-6.93-5.54-4.33,3.28-6.47,4.91-10.66,8.19-.79,14.25-1.08,28.51-2.12,42.75"/>
    <path class="cls-1" d="m609.83,388.39h16.6c3.8-4.4,5.66-6.6,9.4-11-1.98-11.49-4.32-22.91-6.28-34.4-2.79-2.22-4.18-3.32-6.93-5.54-4.33,3.28-6.47,4.91-10.66,8.19-.79,14.25-1.08,28.51-2.12,42.75"/>
    <path class="cls-1" d="m609.83,388.39h16.6c3.8-4.4,5.66-6.6,9.4-11-1.98-11.49-4.32-22.91-6.28-34.4-2.79-2.22-4.18-3.32-6.93-5.54-4.33,3.28-6.47,4.91-10.66,8.19-.79,14.25-1.08,28.51-2.12,42.75"/>
    <path class="cls-1" d="m587.98,398.63s-10.53,2.13-14.95,4.4c-.41.21-.48.77-.12,1.02,3.46,2.4,12.2,4.76,12.2,4.76,1.22-4.07,1.81-6.1,2.87-10.17"/>
    <path class="cls-1" d="m560.72,403.6s9.42-2.47,13.57-4.35c.44-.2.48-.82.08-1.05-4.68-2.7-13.02-4.33-13.02-4.33-.13,3.89-.28,5.84-.63,9.73"/>
    <path class="cls-1" d="m556.12,426.14s9.37-2.53,13.64-4.25c.51-.2.57-.91.09-1.09-3.97-1.51-12.58-4.4-12.58-4.4-.47,3.89-.72,5.84-1.16,9.73"/>
    <path class="cls-1" d="m589.1,397.74s-11.27-2.1-16.44-4.47c-.43-.19-.44-.81-.02-1.05,5.22-2.97,17.04-5.37,17.04-5.37-.05,4.36-.2,6.53-.58,10.89"/>
    <path class="cls-1" d="m588.66,385.87s-11.57-1.86-15.61-3.09c-.46-.14-.59-.76-.23-1.03,4.02-3.06,13.5-6.81,13.5-6.81,1.03,4.37,1.52,6.56,2.34,10.93"/>
    <path class="cls-1" d="m584.84,363.44s-8.14,4-12.74,7.32c-.37.27-.25.87.21,1.05,4.84,1.84,13.34,2.04,13.34,2.04-.29-4.16-.47-6.25-.81-10.41"/>
    <path class="cls-1" d="m559.08,415.35s8.15-3.57,12.62-5.58c.45-.2.53-.83.13-1.05-3.51-1.87-11.65-3.2-11.65-3.2-.39,3.93-.62,5.9-1.1,9.83"/>
    <path class="cls-1" d="m560.25,392.8s7.61-3.37,12.09-5.37c.45-.2.43-.85-.02-1.07-4.76-2.27-12.83-3.76-12.83-3.76.46,4.08.66,6.12.75,10.2"/>
    <path class="cls-1" d="m562.21,382.01s5.99-2.74,9.67-4.61c.43-.22.35-.88-.12-1.07-4.34-1.76-11.04-3.55-11.04-3.55.66,3.69.98,5.54,1.5,9.23"/>
    <path class="cls-1" d="m585.7,363.75s-8.96-1.02-12.82-1.74c-.46-.09-.7-.63-.43-.97,2.13-2.72,6.62-5.27,6.62-5.27,2.66,3.19,3.99,4.79,6.63,7.98"/>
    <path class="cls-1" d="m563.65,370.35s3.47-2.05,6.65-3.41c.44-.19.39-.84-.08-1.06-3.85-1.84-8.62-3.78-11.84-3.28-3.58.55,5.27,7.75,5.27,7.75"/>
    <path class="cls-1" d="m578.06,355.77s-5.82-1.17-8.64-1.56c-.4-.06-.66-.48-.52-.84.43-1.08.97-2.07,1.3-2.48,1.48-.88,7.86,4.89,7.86,4.89"/>
    <path class="cls-1" d="m563.98,360.09s2.51-1.18,4.65-2.16c.42-.19.38-.81-.06-1.05-3.36-1.87-8.1-2.23-8.9-1.26-.89,1.06,4.31,4.47,4.31,4.47"/>
    <path class="cls-1" d="m584.83,410.87s-8.84,1.76-13.42,4.06c-.41.21-.51.76-.17,1.01,2.88,2.17,8.51,3.87,8.51,3.87,2.05-3.58,3.08-5.37,5.08-8.95"/>
    <path class="cls-1" d="m576.35,438.08s-5.26.63-9.32-.57c-.44-.13-.55-.69-.19-1,3.76-3.2,8.71-7.54,8.71-7.54,0,0-1.94-.59-3.66-1.03-.43-.11-.53-.67-.17-.99,2.75-2.38,8.42-6.12,9.75-5.64,1.49.53-5.13,16.77-5.13,16.77"/>
    <path class="cls-1" d="m556.88,434.53s7.58-2.12,11.29-3.78c.41-.18.53-.73.21-1-1.98-1.7-5.99-1.36-5.99-1.36-2.39,2.45-3.58,3.68-5.93,6.14h.41Z"/>
    <path class="cls-2" d="m645.91,351.69c-1.56-3.57-3.57-6.43-6.05-8.6-2.47-2.16-5.21-3.8-8.22-4.91-3.01-1.11-6.21-1.61-9.51-1.58-3.25.03-6.42.58-9.41,1.75-3,1.17-5.68,2.79-8.03,4.87-2.35,2.08-4.15,4.77-5.38,8.07-1.14,3.08-1.58,6.47-1.37,10.18,0,0-.01,0-.02,0,.83,10.09,1.5,20.12,1.68,30.24,0,.24,0,.36,0,.6-.04,2.84-.09,4.26-.22,7.1-.01.3-.02.6,0,.89.15,1.81.82,3.32,2.05,4.52,1.23,1.2,2.72,1.8,4.49,1.8,1.36,0,2.64-.37,3.83-1.12.72-.4,1.3-.95,1.74-1.67.44-.72.68-1.5.72-2.34.06-1.29-.33-2.38-1.15-3.27-.82-.89-1.85-1.34-3.07-1.34s-2.27.45-3.16,1.34c-.88.89-1.36,1.97-1.43,3.25-.05.91.16,1.81.6,2.56.5.85,1.18,1.44,2.06,1.77-1.26-.03-2.39-.43-3.38-1.2-.51-.39-.94-.88-1.28-1.44-.66-1.09-.96-2.29-.9-3.61.03-.74.18-1.44.45-2.1,4.55-6.87,13.45-8.7,21.28-8.39.64.05,1.29.08,1.94.07,3.1-.03,6.14-.64,9.05-1.75,2.91-1.11,5.53-2.71,7.87-4.78,2.33-2.07,4.18-4.75,5.53-8.03,1.34-3.27,1.96-6.9,1.85-10.88-.12-4.44-.96-8.45-2.52-12.02m-21.8,34.82c-2.31,0-4.39-10.79-4.39-10.79-.79-3.68-1.28-7.99-1.57-12.89-.4-6.81-.73-21.89,3.98-23.59,2.22-.8,5.11,13.6,5.11,13.6.48,3.22.85,6.81,1.01,10.7.21,4.94.04,9.25-.44,12.85,0,0-1.4,10.13-3.71,10.13"/>
    <path class="cls-2" d="m613.78,427.83c-.54-1.1-1.32-1.97-2.36-2.61-1.04-.64-2.19-.97-3.46-.97-1.94,0-3.62.68-5.06,2.04-1.44,1.36-2.23,3.02-2.35,4.97-.12,1.95.47,3.6,1.77,4.96,1.29,1.35,2.92,2.03,4.86,2.04,1.38,0,2.77-.4,3.94-1.17,1.31-.86,2.25-2.01,2.82-3.42-.13,2-.79,3.82-2,5.46-.62.84-1.38,1.58-2.24,2.16-1.68,1.16-3.52,1.74-5.53,1.74-1.51,0-2.91-.34-4.18-1.02-1.27-.68-2.31-1.6-3.1-2.75-.79-1.15-1.43-2.34-1.91-3.55-.27-.68-.51-1.39-.69-2.13-.23-.9-.36-1.82-.45-2.76-.24-2.69-.34-4.04-.53-6.73,1.68-22.3,1.92-43.48-.17-65.75-.35-6.08-1.83-11.16-4.49-15.22-2.66-4.06-5.98-6.25-10.05-6.62-3.03-.28-6.06.82-8.95,3.33-1.54,1.34-2.91,3.07-4.08,5.18-.53.96-2.02.55-2.1-.57-.23-3.4-.28-5.45-.3-6.16.02,0,.03.02.05.03-.01-.43-.02-.64-.02-1.07-.45-.44-.7-.69-1.14-1.13h-23.86c-.08,0-.15,0-.23,0h-.15s-.03,0-.05,0c-.02,0-.05,0-.08,0-.02,0-.03,0-.05.01-.03,0-.07.01-.1.02-1.43.27-2.99,1.25-3.81,2.2-.85.98-1.25,2.14-1.19,3.47h0s0,.01,0,.01c.05.91.84,1.65,1.76,1.65s1.62-.74,1.57-1.66c-.05-.92-.82-1.66-1.74-1.66-.28,0-.54.08-.77.2.13-.38.31-.74.54-1.09.28-.4.62-.75,1.02-1.04.59-.41,1.58-.25,2.5.08.01,0,.03.01.04.02.28.1.57.22.84.34,0,0,0,0,.01,0,4.09,1.84,6.75,7.09,8.2,15.24,3.7,20.83,5.36,41.75,1.3,62.59-1.61,8.29-3.83,20.88-11.09,26.31h0c-.02.77-.02,1.15-.03,1.91,8.84.04,17.68.04,26.52,0,9.66.04,19.31.05,28.97.03h0s11.74.01,11.74.01c.45,0,.91-.02,1.36-.06,2.76-.38,5.06-1.6,6.93-3.66,1.87-2.06,2.85-4.49,2.96-7.29.09-2.16-.38-4.14-1.4-5.96m-39.11-.88c-1.41,8.22-5.19,13.4-9.86,15.35-.74.31-1.53-.24-1.51-1.04.1-2.91.2-4.37.42-7.28,0-.28.31-4.35.94-10.18,0,0,0,0,0,0,1.74-15.6,3.5-30.95,2.12-46.66.02.03.03.06.05.09-.62-6.92-1.47-13.83-2.25-20.73,0-.09,0-.18,0-.27.29-2.25.74-3.8,1.35-4.63.64-.88,1.35-1.23,2.13-1.05,10.37,3.86,10.96,25.03,11.36,34.1.62,14.27-2.38,28.39-4.76,42.3"/>
    <path class="cls-2" d="m806.96,365.25c-1.98-1.87-4.4-2.87-7.18-2.89-3.41-.04-6.24,1.37-8.37,3.95-1.5,1.81-2.4,3.86-2.59,6.14-.22,2.69.54,5,2.24,6.93,1.71,1.93,3.9,2.89,6.55,2.89.51,0,1.02-.06,1.53-.18-.97,2.22-2.63,3.49-5.04,3.82-2.4.32-4.63-.69-6.66-3.03-2.02-2.34-2.9-5.79-2.55-10.35.36-5.13.59-7.7,1-12.83.06-1.4.1-2.86.14-4.32.1-3.12-.46-6-1.76-8.51-2.63-5.11-7.59-8.4-14.56-9.82-6.4-1.31-12.27-.7-17.54,1.93-5.51,2.75-8.29,6.78-8.46,12.1-.11,3.68.88,6.46,2.98,8.33,2.1,1.87,4.57,2.87,7.35,2.89,3.4.03,6.16-1.37,8.21-3.95,1.44-1.81,2.3-3.86,2.42-6.14.14-2.69-.7-5-2.53-6.93-1.83-1.93-4.13-2.89-6.87-2.89-.52,0-1.05.06-1.58.18.92-2.22,2.6-3.49,5.09-3.82,2.48-.32,4.84.69,7,3.03,2.16,2.34,3.14,5.79,2.88,10.35-.22,4.54-.37,6.81-.64,11.36-3.95.1-7.42.37-10.38.83-3.77.58-6.96,1.87-9.55,3.86-2.36,1.93-3.93,4.15-4.72,6.67-.79,2.51-.84,4.84-.18,6.97.66,2.13,1.98,3.96,3.93,5.48,1.95,1.52,4.43,2.23,7.04,2.46,6.16.53,14.32-3.29,17.46-8.88,2.72,3.39,6.74,5.62,11.94,6.74,6.11,1.31,11.73.7,16.9-1.93,5.41-2.75,8.33-6.78,8.85-12.1.36-3.68-.41-6.46-2.39-8.33m-37.22,13.24c-.34,1.14-.71,2.02-1.13,2.63-.42.61-.87,1.05-1.35,1.32-.48.26-.97.37-1.44.31-.47-.06-.96-.26-1.45-.61-1.15-.82-1.92-2.12-2.29-3.9-.37-1.78-.14-3.79.72-6.01.83-1.81,1.98-3.33,3.42-4.56.54-.46,1.1-.84,1.7-1.16-.02.92-.02,1.85-.04,2.79-.05,3.12.53,6,1.79,8.51.05.11.11.21.17.32-.03.12-.07.25-.1.37"/>
    <path class="cls-2" d="m673.84,388.35h-26.51c0-.77,0-1.16,0-1.93,5.12-1.4,7.99-6.63,8.48-15.61.29-5.31.09-10.72-.32-15.96-.47-6.11-2.34-14.68-9.09-16.91,0-.77,0-1.16.01-1.93h27.27c-.04,6.24-.03,9.36,0,15.6,1.96-5.2,4.45-9.06,7.44-11.58,2.99-2.51,6.02-3.61,9.04-3.33,3.37.31,6.26,1.88,8.61,4.78,2.34,2.89,3.84,6.65,4.46,11.27,2-5.61,4.52-9.77,7.56-12.46,3.03-2.69,6.15-3.88,9.37-3.6,4.03.36,7.34,2.56,9.82,6.62,2.48,4.06,3.35,9.25,3.11,15.13-.23,5.53-.11,9.74,0,12.19.42,9.1,3.33,14.39,8.43,15.79,0,.77,0,1.16,0,1.93-11.82.04-23.63.04-35.45,0,0-.77,0-1.16,0-1.93,5.17-1.4,8.35-6.93,8.85-15.79.33-5.94,1.74-17.24-6.05-19.91-.47-.17-.93-.12-1.4.18-.47.29-.91.82-1.32,1.58-.41.76-.8,1.74-1.15,2.94-.36,1.2-.66,2.74-.9,4.6-.24,1.87-.43,3.98-.56,6.32,0,.12,0,.26,0,.44-.05,7.19-.07,14.39-.04,21.58h-27.13c0-.77,0-1.16,0-1.93,5.24-1.4,8-6.92,8.84-15.79.56-5.96.91-17.35-6.34-19.91-.76-.23-1.51.09-2.23.97-.73.88-1.36,2.54-1.9,5-.54,2.46-.85,5.56-.94,9.3.06,7.45.1,14.91.06,22.37"/>
    <path class="cls-2" d="m847.46,439.07h0c-.05-.91-.84-1.65-1.76-1.65s-1.62.74-1.57,1.66c.05.92.82,1.66,1.74,1.66.28,0,.54-.08.77-.2-.13.38-.31.74-.54,1.09-.27.4-.62.75-1.02,1.04-.46.32-1.18.29-1.9.1-.27-.07-.54-.16-.8-.25-.02,0-.05-.02-.07-.03-4.49-1.73-7.31-6.95-8.83-15.5-3.71-20.83-5.27-41.65-1.28-62.59,1.51-7.93,3.74-21.6,11.09-26.31.02-.76.02-1.15.02-1.91-8.84-.03-17.68-.04-26.52,0,0,.02,0,.03,0,.04h-11.55c-.45,0-.91.02-1.36.06-2.76.38-5.07,1.6-6.97,3.66-1.9,2.06-2.92,4.49-3.1,7.29-.14,2.16.27,4.14,1.24,5.96.51,1.1,1.27,1.97,2.29,2.61,1.03.64,2.17.96,3.44.96,1.94,0,3.65-.68,5.13-2.04,1.48-1.36,2.32-3.02,2.48-4.97.16-1.95-.4-3.6-1.67-4.97-1.27-1.35-2.88-2.03-4.83-2.04-1.38,0-2.77.4-3.96,1.17-1.33.86-2.29,2.01-2.9,3.42.18-2,.88-3.82,2.11-5.46.63-.84,1.41-1.58,2.27-2.16,1.7-1.16,3.54-1.74,5.55-1.74,1.51,0,2.91.34,4.17,1.02,1.27.68,2.29,1.6,3.07,2.75.78,1.15,1.4,2.34,1.86,3.55.26.68.48,1.39.65,2.13.21.9.33,1.83.39,2.76.16,2.38.22,3.57.33,5.94-1.74,15.94-3.67,31.62-2.25,47.67-1.84-3.48-4.03-6.1-6.66-7.86-2.63-1.77-5.38-2.59-8.22-2.56-2.41.02-4.65.91-6.63,2.69-3.53,3.19-5.57,8.07-6.03,14.6-.47,6.65.84,12.74,3.86,18.23.06.13.14.27.23.42.06.09.11.18.16.27.02.04.05.08.07.11,1.2,2.08,1.08,4.02.77,5.25-.09.26-.18.53-.28.79-.48,1.21-1.12,2.39-1.9,3.55-.79,1.15-1.82,2.07-3.09,2.75-1.27.68-2.66,1.02-4.18,1.02-2.01,0-3.85-.58-5.54-1.74-.86-.59-1.62-1.32-2.24-2.16-1.22-1.64-1.89-3.46-2.02-5.46.58,1.43,1.54,2.59,2.88,3.45,1.18.76,2.52,1.15,3.9,1.14,1.94,0,3.56-.69,4.84-2.04,1.29-1.36,1.88-3.02,1.75-4.97-.13-1.95-.93-3.6-2.37-4.97-1.45-1.36-3.14-2.04-5.07-2.04-1.27,0-2.42.32-3.45.96-1.04.64-1.82,1.51-2.35,2.61-1.01,1.82-1.46,3.8-1.37,5.96.13,2.8,1.11,5.23,2.99,7.29,1.87,2.06,4.17,3.28,6.93,3.66.45.04.91.06,1.36.06h39.24,0,21.27s.02,0,.03,0c.08,0,.17,0,.25,0,1.47-.22,3.11-1.24,3.97-2.23.85-.98,1.25-2.14,1.19-3.47,0,0,0,0,0,0,0,0,0,0,0,0h0Zm-37.7-5.79c-2.15-4.66-3.47-9.4-3.95-14.12-.25-2.42-.21-4.84.18-7.21.38-2.37.96-4.14,1.73-5.3.77-1.16,1.57-1.75,2.42-1.78.84-.03,1.67,1.19,2.53,3.65.86,2.46,1.56,5.98,2.09,10.56.09.81.62,4.68,1.28,11.6.34,3.51.53,6.27.64,8.27.08,1.54-1.84,2.25-2.86,1.05-1.43-1.68-2.77-3.92-4.05-6.71"/>
    <path class="cls-2" d="m682.16,443.56c.45-.24.94-.39,1.5-.47.56-.08,1.07-.1,1.54-.08.47.03.93.05,1.37.06.44.01.84-.04,1.2-.16.36-.12.64-.33.85-.64h.35c-.1.94-.32,1.62-.67,2.05-.35.43-.81.65-1.36.66-.3,0-.7-.03-1.21-.13-.51-.09-.97-.18-1.38-.26-.41-.08-.86-.1-1.36-.07-.49.04-.92.16-1.28.38h-.66c0-.11,0-.17.01-.29,0-.41.06-.81.19-1.19.13-.38.31-.73.53-1.02.22-.3.47-.6.76-.9.28-.3.57-.57.87-.82.3-.25.59-.51.88-.78.29-.28.56-.54.79-.79.24-.25.43-.52.6-.83.16-.3.25-.61.28-.91.04-.45-.12-.8-.51-1.04s-.81-.28-1.29-.14c-.5.15-.93.5-1.28,1.07-.35.56-.52,1.34-.53,2.31h-.35c-.18-.99-.27-1.49-.45-2.48.59-.61,1.36-1.03,2.28-1.22.76-.16,1.5-.17,2.19-.05.69.11,1.24.32,1.64.62.69.5.99,1.14.89,1.93-.05.44-.19.84-.4,1.17-.22.34-.48.61-.8.83-.32.21-.67.41-1.04.58-.38.17-.77.34-1.18.51-.41.16-.8.33-1.17.51-.37.17-.72.4-1.05.66-.33.27-.59.57-.77.91"/>
    <path class="cls-2" d="m689.39,440.29c0-.7.14-1.33.42-1.91.28-.57.65-1.04,1.12-1.4.46-.36.99-.64,1.57-.83.58-.2,1.19-.29,1.81-.28.62,0,1.22.1,1.78.29.56.19,1.08.47,1.54.85.46.37.82.86,1.09,1.48.27.61.41,1.3.4,2.06,0,.47-.07.91-.19,1.32-.13.41-.31.77-.53,1.09-.23.31-.49.6-.8.85-.3.25-.64.45-1,.62-.36.16-.74.28-1.14.37-.39.08-.8.13-1.21.14-.49,0-.98-.06-1.44-.17-.46-.11-.9-.3-1.32-.54-.42-.25-.78-.55-1.09-.9-.31-.35-.56-.79-.74-1.3-.18-.52-.28-1.08-.28-1.71m4.86-4.09c-.51.01-.95.38-1.29,1.11-.35.73-.53,1.76-.55,3.07-.02,1.34.15,2.37.5,3.1.35.73.8,1.1,1.34,1.09.53,0,.97-.36,1.31-1.06.34-.7.52-1.71.54-3.02.02-1.35-.15-2.42-.5-3.18-.35-.77-.8-1.14-1.35-1.12"/>
    <path class="cls-2" d="m700.42,443.56c.45-.24.95-.39,1.5-.47.56-.08,1.07-.1,1.54-.08.47.03.93.05,1.37.06.44.01.84-.04,1.2-.16.36-.12.64-.33.85-.64h.35c-.1.94-.33,1.62-.68,2.05-.36.43-.81.65-1.36.66-.3,0-.7-.03-1.21-.13-.51-.09-.97-.18-1.38-.26-.41-.08-.86-.1-1.36-.07-.49.04-.92.16-1.28.38h-.66c0-.11,0-.17.01-.29,0-.41.07-.81.2-1.19.13-.38.31-.73.53-1.02.22-.3.48-.6.76-.9.28-.3.58-.57.87-.82.3-.25.59-.51.89-.78.29-.28.56-.54.8-.79.24-.25.44-.52.6-.83.16-.3.25-.61.28-.91.04-.45-.12-.8-.5-1.04-.38-.24-.81-.28-1.29-.14-.5.15-.93.5-1.28,1.07-.35.56-.52,1.34-.53,2.31h-.35c-.18-.99-.27-1.49-.44-2.48.6-.61,1.37-1.03,2.28-1.22.76-.16,1.5-.17,2.19-.05.69.11,1.24.32,1.64.62.69.5.99,1.14.89,1.93-.05.44-.19.84-.4,1.17-.21.34-.48.61-.8.83-.32.21-.67.41-1.04.58-.38.17-.77.34-1.18.51-.41.16-.8.33-1.18.51-.37.17-.73.4-1.06.66-.33.27-.59.57-.78.91"/>
    <path class="cls-2" d="m714.2,442.27c.12,1.27.56,2,1.32,2.2,0,.11,0,.17,0,.28-1.83,0-3.65,0-5.47,0v-.28c.77-.2,1.22-.94,1.34-2.2h-3.42c0-.15,0-.23,0-.38,2.35-2.34,3.53-3.52,5.86-5.86h.3c0,1.6,0,2.41,0,4.01,0,.73,0,1.37.05,1.94h.77c0,.11,0,.17,0,.29h-.76Zm-2.78-.29c.03-.36.04-.77.04-1.23,0-.78,0-1.17,0-1.95-1.26,1.27-1.9,1.91-3.17,3.19h3.12Z"/>
    <path class="cls-2" d="m620.6,363.64c.09,1.58,1.41,2.85,2.94,2.85s2.71-1.28,2.63-2.85c-.08-1.58-1.4-2.85-2.94-2.85s-2.72,1.28-2.63,2.85"/>
    <path class="cls-2" d="m808.53,422.62c.13,1.25,1.24,2.26,2.48,2.26s2.13-1.01,2-2.26c-.14-1.25-1.25-2.26-2.49-2.26s-2.12,1.01-1.99,2.26"/>
    <path class="cls-2" d="m609.67,405.67c.72-.4,1.3-.95,1.74-1.67.44-.72.68-1.5.72-2.34.06-1.29-.33-2.38-1.15-3.27-.82-.89-1.85-1.34-3.07-1.34s-2.27.45-3.16,1.34c-.88.89-1.36,1.97-1.43,3.25-.05.91.15,1.81.6,2.56.5.85,1.18,1.44,2.05,1.77,0,0,1.95.61,3.71-.3"/>
    <path class="cls-2" d="m804.28,356.05c1.16-.61,2.12-1.48,2.87-2.59.75-1.11,1.19-2.32,1.3-3.62.17-1.99-.4-3.68-1.69-5.06-1.29-1.38-2.93-2.07-4.9-2.07s-3.67.69-5.12,2.07c-1.44,1.37-2.23,3.05-2.39,5.02-.11,1.4.19,2.8.86,3.97.75,1.31,1.81,2.22,3.18,2.74,0,0,3.04.94,5.89-.46"/>
    <path class="cls-1" d="m607.47,401.96c-.45,1.13-.31,2.24.33,2.49.64.25,1.53-.47,1.98-1.6.45-1.13.29-2.24-.35-2.49-.64-.25-1.51.47-1.96,1.6"/>
    <path class="cls-1" d="m608.16,432.25c.42,1.66,1.59,2.75,2.59,2.44,1-.31,1.45-1.9,1.03-3.55-.42-1.66-1.56-2.75-2.56-2.44-1,.31-1.48,1.9-1.06,3.55"/>
    <path class="cls-1" d="m635.59,402.93c-.27,1.18.06,2.25.73,2.4.68.15,1.45-.69,1.71-1.86.27-1.18-.07-2.25-.74-2.4-.68-.15-1.43.69-1.7,1.86"/>
    <path class="cls-1" d="m658.99,423.64c-.05,1.2.49,2.19,1.2,2.21.71.02,1.33-.94,1.38-2.14.05-1.2-.49-2.19-1.2-2.21-.71-.02-1.33.94-1.38,2.14"/>
    <path class="cls-1" d="m697.14,401.73c0-1.2-.58-2.18-1.29-2.18s-1.29.97-1.29,2.18.58,2.18,1.29,2.18,1.29-.97,1.29-2.18"/>
    <path class="cls-1" d="m734.56,413.89c-.23-1.18-.98-2.05-1.66-1.93-.69.12-1.06,1.18-.83,2.36.23,1.18.98,2.05,1.67,1.93.69-.12,1.06-1.18.83-2.36"/>
    <path class="cls-1" d="m761.68,399.14c-.15-1.2-.82-2.11-1.5-2.04-.68.07-1.12,1.1-.97,2.29.15,1.2.83,2.11,1.52,2.04.68-.07,1.11-1.1.96-2.29"/>
    <path class="cls-1" d="m777.34,430.94c-.34,1.43-1.33,2.39-2.19,2.13-.87-.26-1.28-1.63-.94-3.06.34-1.43,1.31-2.39,2.17-2.13.86.26,1.3,1.63.96,3.06"/>
    <path class="cls-1" d="m797.55,374.55c-.29-1.98-1.46-3.35-2.63-3.07-1.17.28-1.9,2.11-1.6,4.08.3,1.98,1.5,3.35,2.66,3.07,1.16-.28,1.86-2.11,1.57-4.08"/>
    <path class="cls-1" d="m802.71,349.62c-.03-1.57-.84-2.78-1.8-2.68-.95.09-1.69,1.45-1.66,3.02.03,1.57.81,2.77,1.77,2.68.95-.09,1.71-1.45,1.69-3.02"/>
    <path class="cls-1" d="m754.53,353.6c-.37-1.98-1.65-3.35-2.83-3.07-1.18.28-1.82,2.11-1.44,4.08.38,1.98,1.63,3.35,2.81,3.07,1.18-.28,1.84-2.11,1.47-4.08"/>
    <path class="cls-1" d="m675.27,398.54c0-1.2-.57-2.18-1.28-2.18s-1.28.97-1.28,2.18c0,1.2.57,2.18,1.28,2.18s1.28-.97,1.28-2.18"/>
    <path class="cls-2" d="m608.25,402.4c-.02.36.25.66.6.66s.65-.29.67-.66c.02-.36-.25-.66-.6-.66s-.65.29-.67.66"/>
    <path class="cls-2" d="m636.42,403.83c.04.36.36.61.71.56s.6-.39.56-.75c-.04-.36-.36-.61-.71-.56-.35.05-.6.39-.56.75"/>
    <path class="cls-2" d="m660.02,423.43c.11.35.48.53.82.42.34-.12.53-.49.43-.83-.11-.34-.48-.53-.82-.42-.34.11-.53.49-.43.83"/>
    <path class="cls-2" d="m696.39,401.6c-.21-.3-.61-.37-.91-.16-.3.21-.37.62-.16.92.21.3.61.37.91.16.3-.21.37-.62.16-.92"/>
    <path class="cls-2" d="m733.67,414.2c-.21-.3-.62-.37-.9-.16-.29.21-.35.62-.14.92.21.3.62.37.9.16s.35-.62.13-.92"/>
    <path class="cls-2" d="m760.51,399.36c-.21-.3-.6-.37-.88-.16-.28.21-.34.62-.13.92.21.3.61.37.89.16.28-.21.34-.62.13-.92"/>
    <path class="cls-2" d="m609.35,431.43c-.03.62.44,1.13,1.06,1.13s1.14-.5,1.17-1.13c.03-.62-.44-1.13-1.06-1.13s-1.14.5-1.18,1.13"/>
    <path class="cls-2" d="m776.24,430.95c-.29.43-.89.52-1.34.2-.45-.32-.57-.93-.28-1.36.29-.43.89-.52,1.33-.2.45.32.57.93.28,1.36"/>
    <path class="cls-2" d="m795.54,375c-.62-.14-1.27.28-1.45.93-.18.65.17,1.29.79,1.42.62.14,1.27-.28,1.45-.93.18-.65-.17-1.29-.79-1.42"/>
    <path class="cls-2" d="m801.51,349.53c-.29-.4-.88-.47-1.3-.14-.43.33-.54.92-.25,1.32.29.4.87.47,1.3.14.43-.33.54-.92.25-1.32"/>
    <path class="cls-2" d="m753.62,355.45c-.32-.53-1.02-.68-1.56-.33-.54.35-.72,1.06-.4,1.59.32.53,1.01.68,1.55.33.54-.35.72-1.06.4-1.59"/>
    <path class="cls-2" d="m674.52,398.17c-.2-.3-.61-.37-.9-.16-.29.21-.37.62-.16.92.2.3.61.37.9.16.29-.21.37-.62.16-.92"/>
  </g>
</svg>