<?xml version="1.0" encoding="UTF-8"?>
<svg id="Calque_1" data-name="Calque 1" xmlns="http://www.w3.org/2000/svg" viewBox="0 0 1380 781">
  <defs>
    <style>
      .cls-1 {
        fill: #871247;
      }

      .cls-2 {
        fill: #f6d5d7;
      }

      .cls-3 {
        fill: #d70d55;
      }
    </style>
  </defs>
  <rect class="cls-3" x="-22" y="-9" width="1426.54" height="814"/>
  <g>
    <path class="cls-1" d="m586.12,516.44v2.61c0,3.84,3.1,6.95,6.94,6.95h193.86c3.84,0,6.95-3.11,6.95-6.95v-2.62h0c0-2.58.13-5.73-2.39-7.73-32.45,4.35-65.58,6.59-99.22,6.59s-69.52-2.43-103.27-7.13c0,0-2.87-1-2.87,8.27Z"/>
    <g>
      <path class="cls-2" d="m634.78,428.1c-3.69-3.99-5.53-8.92-5.53-14.79s1.84-10.8,5.53-14.79c3.69-3.99,8.43-5.99,14.22-5.99s10.49,2.01,14.2,6.02c3.71,4.01,5.56,8.93,5.56,14.76s-1.85,10.75-5.56,14.76c-3.71,4.01-8.44,6.02-14.2,6.02s-10.53-2-14.22-5.99Zm22.91-5.53c2.12-2.43,3.18-5.51,3.18-9.26s-1.06-6.88-3.18-9.31c-2.12-2.43-5.02-3.64-8.69-3.64s-6.63,1.21-8.77,3.64c-2.14,2.43-3.21,5.53-3.21,9.31s1.08,6.83,3.24,9.26c2.16,2.43,5.07,3.64,8.74,3.64s6.57-1.21,8.69-3.64Z"/>
      <path class="cls-2" d="m678.34,428.1c-3.69-3.99-5.53-8.92-5.53-14.79s1.84-10.8,5.53-14.79c3.69-3.99,8.43-5.99,14.22-5.99s10.49,2.01,14.2,6.02c3.71,4.01,5.56,8.93,5.56,14.76s-1.85,10.75-5.56,14.76c-3.71,4.01-8.44,6.02-14.2,6.02s-10.53-2-14.22-5.99Zm22.91-5.53c2.12-2.43,3.18-5.51,3.18-9.26s-1.06-6.88-3.18-9.31c-2.12-2.43-5.02-3.64-8.69-3.64s-6.63,1.21-8.77,3.64c-2.14,2.43-3.21,5.53-3.21,9.31s1.08,6.83,3.24,9.26c2.16,2.43,5.07,3.64,8.74,3.64s6.57-1.21,8.69-3.64Z"/>
      <g>
        <path class="cls-2" d="m768.98,432.81c-.78.67-1.82,1.01-3.11,1.01-1.8,0-3.16-.45-4.07-1.35-.91-.9-1.37-2.14-1.37-3.7v-5.9h-1.64v-2.98h1.64v-4.64h3.99v4.64h3.42v2.98h-3.42v5.93c0,.55.13.96.38,1.24s.6.42,1.04.42c.51,0,.92-.16,1.23-.49l1.91,2.84Z"/>
        <path class="cls-2" d="m771.72,431.77c-1.35-1.37-2.02-3.05-2.02-5.06s.67-3.69,2.02-5.05c1.35-1.37,3.05-2.05,5.11-2.05s3.74.68,5.1,2.05c1.36,1.37,2.04,3.05,2.04,5.05s-.68,3.69-2.04,5.06-3.06,2.05-5.1,2.05-3.76-.68-5.11-2.05Zm7.41-2.49c.6-.69.9-1.55.9-2.57s-.3-1.88-.9-2.58c-.6-.7-1.37-1.05-2.3-1.05s-1.72.35-2.31,1.04c-.59.69-.89,1.56-.89,2.6s.3,1.9.89,2.58c.59.68,1.36,1.02,2.31,1.02s1.69-.35,2.3-1.04Z"/>
      </g>
      <g>
        <path class="cls-2" d="m601.52,375.52h2.94v2.67h-2.94v9.59h-3.56v-9.59h-2.06v-2.67h2.06v-1.96c0-1.24.45-2.29,1.35-3.14.9-.85,2-1.28,3.31-1.28,1.5,0,2.67.51,3.51,1.52l-1.86,2.13c-.34-.49-.8-.74-1.37-.74-.41,0-.74.16-.99.49-.25.33-.38.74-.38,1.25v1.72Z"/>
        <path class="cls-2" d="m616.06,376.32l-1.5,2.62c-.52-.38-1.16-.56-1.91-.56s-1.44.3-2.02.9-.87,1.39-.87,2.37v6.13h-3.58v-12.27h3.21l.2,1.89c.92-1.42,2.09-2.13,3.51-2.13,1.26,0,2.25.35,2.97,1.05Z"/>
        <path class="cls-2" d="m618.03,386.19c-1.21-1.23-1.82-2.74-1.82-4.54s.6-3.31,1.82-4.54c1.21-1.23,2.74-1.84,4.59-1.84s3.36.61,4.58,1.84c1.22,1.23,1.83,2.74,1.83,4.54s-.61,3.31-1.83,4.54c-1.22,1.23-2.74,1.84-4.58,1.84s-3.38-.61-4.59-1.84Zm6.65-2.23c.54-.62.81-1.39.81-2.31s-.27-1.69-.81-2.32c-.54-.63-1.23-.95-2.06-.95s-1.54.31-2.07.93c-.53.62-.8,1.4-.8,2.33s.27,1.7.8,2.32c.53.61,1.22.92,2.07.92s1.52-.31,2.06-.93Z"/>
        <path class="cls-2" d="m649.31,376.56c.83.86,1.25,2,1.25,3.42v7.8h-3.58v-7.36c0-.6-.19-1.09-.56-1.47s-.87-.56-1.47-.56c-.64,0-1.17.22-1.61.66-.43.44-.65.98-.65,1.62v7.11h-3.58v-7.36c0-.6-.18-1.09-.55-1.47-.37-.38-.85-.56-1.46-.56-.64,0-1.18.22-1.62.66s-.66.98-.66,1.62v7.11h-3.58v-12.27h3.21l.17,1.3c.93-1.03,2.09-1.54,3.48-1.54,1.72,0,2.99.64,3.83,1.91,1.03-1.28,2.38-1.91,4.05-1.91,1.39,0,2.5.43,3.34,1.29Z"/>
      </g>
      <path class="cls-2" d="m781.45,465.34v-.08h-19.97v-14.11h9.92c10.13-.08,12.77-6.02,13.35-10.38h-35.23v59.43h11.97v-24.49h6.49c10.25-.03,12.91-6.01,13.48-10.39Z"/>
      <path class="cls-2" d="m741.97,489.75h-23.29v-14.03h6.52c10.27-.05,12.89-6.08,13.45-10.46h-19.97v-14.11h9.93c10.13-.08,12.77-6.02,13.35-10.38h-35.25v59.43h21.7c10.36,0,13-6.07,13.56-10.46Z"/>
      <path class="cls-2" d="m685.24,486.61c.03,11.09,7.03,13.3,11.43,13.6h.54v-45.73c0-11.61-7.62-13.53-11.97-13.68v24.38h-25.52v-10.75c-.01-11.59-7.63-13.5-11.97-13.65v45.76c0,11.52,7.5,13.5,11.86,13.68h.11v-24.49h25.52v10.89Z"/>
      <path class="cls-2" d="m638.34,484.72c-3.45,3.28-7.73,4.95-12.86,4.95-5.44,0-9.75-1.81-12.92-5.43-3.17-3.62-4.76-8.2-4.76-13.75s1.59-10.05,4.76-13.67c3.17-3.62,7.48-5.43,12.92-5.43,5.05,0,9.32,1.65,12.86,4.9.29-3.52.34-16.03-13.19-16.3-8.35.08-15.21,3-20.55,8.78-5.42,5.86-8.12,13.1-8.12,21.71s2.71,15.85,8.12,21.71c5.34,5.79,12.2,8.7,20.55,8.78,13.49-.27,13.47-12.7,13.19-16.26Z"/>
      <path class="cls-2" d="m623.99,423.08c-2.37,2.26-5.3,3.4-8.83,3.4-3.74,0-6.69-1.24-8.87-3.73-2.18-2.49-3.27-5.63-3.27-9.44s1.09-6.9,3.27-9.39c2.18-2.48,5.13-3.73,8.87-3.73,3.47,0,6.4,1.13,8.83,3.36.2-2.42.24-11.01-9.05-11.19-5.74.05-10.44,2.06-14.11,6.03-3.72,4.03-5.58,9-5.58,14.91s1.86,10.88,5.58,14.91c3.67,3.97,8.38,5.98,14.11,6.03,9.26-.18,9.25-8.72,9.06-11.17Z"/>
      <path class="cls-2" d="m748.29,393.07h-1.47c-5.64,0-10.97,2.62-14.41,7.09l-6.72,8.72v-6.78c-.13-7.61-5.17-8.92-8.1-9.03h-.05v31.15c0,7.92,5.19,9.22,8.15,9.32v-20.23l22.54,20.23v-2.43c0-5.37-2.37-10.47-6.49-13.93l-7.69-6.47,14.23-17.65Z"/>
    </g>
    <path class="cls-1" d="m790.28,373.76c-4.65-32.68-24.76-61.27-53.66-76.77-.17-.12-.39-.24-.68-.37-3.31-1.48-3.16-5.16-3.01-6.43.01-.09.03-.19.04-.28.02-.09.03-.15.03-.15h-.01c.2-1.46.31-2.97.29-4.53-.15-13.62-9.55-25.76-22.73-29.2-17.94-4.69-35.47,7.27-38.1,25.1-.1.66-.17,1.32-.23,1.98-.13,1.59-1.29,2.87-2.86,3.15-33.03,5.86-61.44,27.58-75.72,58.07-1.94,4.15.33,9.08,4.74,10.32,30.26,8.51,61.4,15.2,93.31,19.9,30.51,4.5,60.88,7.06,90.94,7.77,4.64.11,8.29-3.95,7.64-8.55Zm-68.09-87.47c0,.06-.02.11-.03.17-.32,2.02-2.4,3.28-4.36,2.69-4.88-1.48-9.93-2.62-15.13-3.39-5.2-.77-10.35-1.13-15.45-1.12-2.04,0-3.68-1.8-3.4-3.82,0-.06.02-.12.03-.18,1.7-11.51,13.19-19.17,24.78-15.73,9.31,2.76,14.97,11.77,13.55,21.38Z"/>
  </g>
</svg>