<?xml version="1.0" encoding="UTF-8"?>
<svg id="Calque_1" data-name="Calque 1" xmlns="http://www.w3.org/2000/svg" viewBox="0 0 1380 781">
  <defs>
    <style>
      .cls-1 {
        fill: #f8d52d;
      }

      .cls-2 {
        fill: #fbfbfe;
      }
    </style>
  </defs>
  <rect class="cls-2" x="-13" y="-2" width="1408" height="800"/>
  <g>
    <g>
      <path d="m614.4,366.71v19.82h-5.23v-28.28h4.93l11.73,19.91v-19.91h5.23l.07,28.28h-4.93l-11.8-19.82Z"/>
      <path d="m644.67,358.23h4.4l10,28.3h-5.97l-2.94-8.74h-8.25l-2.74,8.74h-4.93l10.43-28.3Zm-1.7,15.74h6.25l-3-9.75-3.25,9.75Z"/>
      <path d="m680.28,362.07h-8.7v24.46h-5.23v-24.46h-8.66v-3.83h22.6v3.83Z"/>
      <path d="m683.71,386.53v-28.28h5.23v28.28h-5.23Z"/>
      <path d="m719.72,371.8c0,1.42-.14,2.79-.42,4.11-.28,1.32-.69,2.54-1.22,3.67-.53,1.13-1.17,2.16-1.92,3.1-.75.93-1.61,1.73-2.56,2.39-.96.66-2,1.17-3.13,1.53-1.13.36-2.33.54-3.61.54-2.06,0-3.88-.36-5.48-1.08-1.59-.72-2.94-1.74-4.03-3.06-1.09-1.32-1.92-2.89-2.49-4.73-.57-1.83-.86-3.87-.86-6.09s.33-4.11.99-5.9c.66-1.79,1.57-3.34,2.73-4.64,1.16-1.3,2.53-2.31,4.11-3.03,1.58-.72,3.29-1.08,5.13-1.08s3.62.33,5.18.98c1.56.66,2.91,1.6,4.03,2.82,1.13,1.23,2,2.73,2.62,4.49.62,1.77.93,3.76.93,5.97Zm-5.41.45c0-1.59-.17-3.04-.52-4.35-.35-1.31-.85-2.44-1.49-3.38-.64-.94-1.42-1.66-2.33-2.18s-1.92-.77-3.04-.77-2.14.24-3.06.73-1.71,1.18-2.37,2.09c-.66.9-1.17,1.99-1.53,3.27-.36,1.28-.54,2.7-.54,4.28s.15,3.08.46,4.44c.31,1.36.77,2.54,1.38,3.53.61.99,1.37,1.77,2.28,2.33.91.56,1.96.84,3.17.84s2.26-.3,3.2-.89,1.74-1.4,2.39-2.4c.65-1,1.15-2.16,1.49-3.47.34-1.31.51-2.66.51-4.07Z"/>
      <path d="m729.7,366.71v19.82h-5.23v-28.28h4.93l11.73,19.91v-19.91h5.23l.07,28.28h-4.93l-11.8-19.82Z"/>
      <path d="m759.97,358.23h4.4l10,28.3h-5.97l-2.94-8.74h-8.25l-2.74,8.74h-4.93l10.43-28.3Zm-1.7,15.74h6.25l-3-9.75-3.25,9.75Z"/>
      <path d="m794.92,386.53h-17.36v-28.28h5.23v24.46h12.13v3.83Z"/>
      <path d="m632.04,421.46c-1.31.57-2.84,1.03-4.58,1.4-1.74.37-3.62.55-5.64.55-1.43,0-2.74-.19-3.93-.58-1.19-.38-2.25-.92-3.19-1.6-.94-.68-1.76-1.49-2.46-2.42-.7-.93-1.29-1.94-1.75-3.03-.46-1.09-.81-2.24-1.04-3.44-.23-1.2-.34-2.42-.34-3.65,0-1.3.14-2.57.41-3.81.27-1.24.67-2.41,1.19-3.51.52-1.1,1.17-2.11,1.94-3.03.77-.92,1.65-1.71,2.64-2.37.99-.66,2.09-1.18,3.3-1.55,1.21-.37,2.52-.56,3.93-.56,1.03,0,1.93.05,2.69.16.76.11,1.47.29,2.15.55.67.26,1.35.61,2.03,1.06.68.45,1.46,1,2.34,1.68l-2.98,3.72c-.7-.63-1.33-1.14-1.9-1.53-.57-.4-1.11-.71-1.62-.93-.51-.22-1.01-.38-1.5-.46s-.99-.13-1.51-.13c-1.18,0-2.24.26-3.19.78-.95.52-1.76,1.23-2.43,2.14-.67.91-1.18,1.98-1.53,3.2-.35,1.23-.53,2.55-.53,3.97,0,1.49.16,2.91.48,4.25s.79,2.52,1.41,3.54c.62,1.02,1.39,1.82,2.31,2.42s1.98.89,3.19.89c1.02,0,1.92-.03,2.7-.09.78-.06,1.51-.18,2.19-.36v-10.58h5.23v13.32Z"/>
      <path d="m653.24,398.37h-10.92v7.51h8.7v3.83h-8.7v9.33h11.39v3.83h-16.62v-28.32h16.15v3.83Z"/>
      <path d="m683.41,408.13c0,1.42-.14,2.79-.42,4.11-.28,1.32-.69,2.54-1.22,3.67-.53,1.13-1.17,2.16-1.92,3.1-.75.93-1.61,1.73-2.56,2.39-.96.66-2,1.17-3.13,1.53-1.13.36-2.33.54-3.61.54-2.06,0-3.88-.36-5.48-1.08-1.59-.72-2.94-1.74-4.03-3.06-1.09-1.32-1.92-2.89-2.49-4.73-.57-1.83-.86-3.87-.86-6.09s.33-4.11.99-5.9c.66-1.79,1.57-3.34,2.73-4.64,1.16-1.3,2.53-2.31,4.11-3.03,1.58-.72,3.29-1.08,5.13-1.08s3.62.33,5.18.98c1.56.66,2.91,1.6,4.03,2.82,1.13,1.23,2,2.73,2.62,4.49.62,1.77.93,3.76.93,5.97Zm-5.41.45c0-1.59-.17-3.04-.52-4.35-.35-1.31-.85-2.44-1.49-3.38-.64-.94-1.42-1.66-2.33-2.18s-1.92-.77-3.04-.77-2.14.24-3.06.73-1.71,1.18-2.37,2.09c-.66.9-1.17,1.99-1.53,3.27-.36,1.28-.54,2.7-.54,4.28s.15,3.08.46,4.44c.31,1.36.77,2.54,1.38,3.53.61.99,1.37,1.77,2.28,2.33.91.56,1.96.84,3.17.84s2.26-.3,3.2-.89,1.74-1.4,2.39-2.4c.65-1,1.15-2.16,1.49-3.47.34-1.31.51-2.66.51-4.07Z"/>
      <path d="m711.02,421.46c-1.31.57-2.84,1.03-4.58,1.4-1.74.37-3.62.55-5.64.55-1.43,0-2.74-.19-3.93-.58-1.19-.38-2.25-.92-3.19-1.6-.94-.68-1.76-1.49-2.46-2.42-.7-.93-1.29-1.94-1.75-3.03-.46-1.09-.81-2.24-1.04-3.44-.23-1.2-.34-2.42-.34-3.65,0-1.3.14-2.57.41-3.81.27-1.24.67-2.41,1.19-3.51.52-1.1,1.17-2.11,1.94-3.03.77-.92,1.65-1.71,2.64-2.37.99-.66,2.09-1.18,3.3-1.55,1.21-.37,2.52-.56,3.93-.56,1.03,0,1.93.05,2.69.16.76.11,1.47.29,2.15.55.67.26,1.35.61,2.03,1.06.68.45,1.46,1,2.34,1.68l-2.98,3.72c-.7-.63-1.33-1.14-1.9-1.53-.57-.4-1.11-.71-1.62-.93-.51-.22-1.01-.38-1.5-.46s-.99-.13-1.51-.13c-1.18,0-2.24.26-3.19.78-.95.52-1.76,1.23-2.43,2.14-.67.91-1.18,1.98-1.53,3.2-.35,1.23-.53,2.55-.53,3.97,0,1.49.16,2.91.48,4.25.32,1.34.79,2.52,1.41,3.54.62,1.02,1.39,1.82,2.31,2.42s1.98.89,3.19.89c1.02,0,1.92-.03,2.7-.09.78-.06,1.51-.18,2.19-.36v-10.58h5.23v13.32Z"/>
      <path d="m721.29,422.86h-5.22v-28.32h8.07c1.83,0,3.41.18,4.76.54,1.34.36,2.45.88,3.32,1.55.87.67,1.52,1.49,1.95,2.45s.64,2.05.64,3.27c0,.37-.03.8-.1,1.27-.07.48-.19.97-.36,1.5-.17.52-.42,1.06-.72,1.61-.31.55-.7,1.07-1.17,1.56-.48.49-1.05.95-1.71,1.38-.67.43-1.45.78-2.36,1.06l8.39,12.13h-5.85l-7.24-11.5h-.52c-.2,0-.42,0-.64-.02-.22-.01-.44-.03-.66-.05-.22-.02-.4-.06-.56-.11l-.02,11.68Zm.02-15.45c.35.05.71.08,1.08.09.37.01.75.02,1.14.02.97,0,1.84-.11,2.61-.32.76-.21,1.41-.51,1.94-.91.53-.4.93-.88,1.21-1.45.28-.57.42-1.22.42-1.94s-.08-1.33-.25-1.83c-.17-.5-.48-.95-.93-1.36-.45-.41-1.1-.73-1.95-.97-.85-.24-1.91-.36-3.19-.36h-2.08v9.04Z"/>
      <path d="m745.25,412.07v10.79h-5.23v-28.28h8.09c2.11,0,3.76.21,4.96.63,1.2.42,2.25,1,3.13,1.75.88.75,1.54,1.63,1.97,2.65s.64,2.14.64,3.34c0,.48-.06,1.04-.18,1.67-.12.63-.33,1.28-.64,1.96-.31.67-.73,1.34-1.25,1.99s-1.21,1.24-2.04,1.76c-.83.52-1.82.94-2.98,1.25-1.16.32-2.52.48-4.08.48h-2.38Zm0-3.83h1.97c1.24,0,2.22-.13,2.93-.4.72-.26,1.34-.64,1.86-1.12.52-.48.93-1.06,1.21-1.73.28-.67.42-1.42.42-2.24,0-.63-.1-1.2-.3-1.73-.2-.53-.53-.99-.99-1.38-.46-.39-1.07-.7-1.81-.91-.75-.22-1.67-.32-2.76-.32h-2.53v9.84Z"/>
      <path d="m768.91,394.56h4.4l10,28.3h-5.97l-2.94-8.74h-8.25l-2.74,8.74h-4.93l10.43-28.3Zm-1.7,15.74h6.25l-3-9.75-3.25,9.75Z"/>
      <path d="m786.49,394.58h5.23v12.27h11.39v-12.27h5.23v28.28h-5.23v-12.18h-11.39v12.18h-5.23v-28.28Z"/>
      <path d="m813.76,422.86v-28.28h5.23v28.28h-5.23Z"/>
      <path d="m846,418.78c-.84.99-1.63,1.78-2.37,2.38-.74.6-1.5,1.07-2.27,1.4-.77.33-1.58.55-2.44.67-.85.11-1.81.17-2.87.17-1.32,0-2.54-.2-3.66-.59-1.11-.39-2.11-.93-3.01-1.62s-1.67-1.51-2.34-2.45c-.67-.94-1.22-1.96-1.67-3.05-.45-1.1-.78-2.24-1-3.45-.22-1.2-.33-2.42-.33-3.65s.1-2.51.3-3.73c.2-1.22.51-2.38.92-3.48.42-1.09.94-2.11,1.58-3.03.64-.93,1.4-1.72,2.27-2.39.88-.67,1.88-1.19,3.01-1.57,1.13-.38,2.39-.57,3.79-.57.97,0,1.86.04,2.66.12.8.08,1.56.23,2.27.46.71.23,1.39.56,2.04.98.65.43,1.3.99,1.95,1.69l-3.04,3.23c-.84-.91-1.73-1.55-2.65-1.9-.92-.35-1.87-.52-2.84-.52-1.22,0-2.26.28-3.13.83-.87.55-1.59,1.3-2.15,2.23-.56.93-.97,2.01-1.24,3.23-.26,1.22-.4,2.5-.4,3.84,0,1.55.16,3.01.49,4.39.32,1.37.78,2.57,1.36,3.6.58,1.03,1.28,1.84,2.1,2.44.82.6,1.72.89,2.71.89s1.72-.08,2.35-.25c.63-.17,1.17-.4,1.63-.7.46-.29.88-.65,1.25-1.06.37-.41.75-.85,1.15-1.32l3.57,2.76Z"/>
    </g>
    <path class="cls-1" d="m591.36,431.24h-57.36v-81.48h57.36v81.48Zm-49.32-8.04h41.28v-65.4h-41.28v65.4Z"/>
  </g>
</svg>