<?xml version="1.0" encoding="UTF-8"?>
<svg id="Calque_1" data-name="Calque 1" xmlns="http://www.w3.org/2000/svg" xmlns:xlink="http://www.w3.org/1999/xlink" viewBox="0 0 1380 781">
  <defs>
    <style>
      .cls-1 {
        fill: #fff;
      }

      .cls-2 {
        fill: #053760;
      }

      .cls-3 {
        fill: #6cd7f4;
      }

      .cls-4, .cls-5 {
        fill: none;
      }

      .cls-5 {
        clip-path: url(#clippath);
      }
    </style>
    <clipPath id="clippath">
      <rect class="cls-4" x="522.21" y="213.48" width="335.59" height="354.04"/>
    </clipPath>
  </defs>
  <rect class="cls-2" width="1380" height="781"/>
  <g class="cls-5">
    <path class="cls-3" d="m595.61,295.05c1.27,1.17,3.68,1.08,4.94-.15.38-.37.96-.57,1.26-.99.51-.73,1.59-1.44.44-2.49.71-.77-.07-1.65.13-2.38.32-1.17-.38-2.08-.51-3.12-.14-1.21-1.16-1.74-2.39-1.89-2.08-.25-3.99-.04-5.76,1.19-1.34.93-1.78,2.25-1.91,3.75.01.2-.05.46.05.59,1.38,1.74,2.07,3.96,3.75,5.5"/>
    <path class="cls-3" d="m571.28,323.93c1.38.89,2.69.49,3.92-.05,2.07-.91,3.81-2.22,4.48-4.62.55-1.98-.24-3.54-1.25-5.07-1.2-1.8-3.15-1.22-4.81-1.5-1.91-.2-2.49,1.42-3.19,2.57-.82,1.35-1.62,2.9-1.15,4.59.41,1.46.48,3.09,2.01,4.08"/>
    <path class="cls-3" d="m585.19,298.66c.48.74,1.07,1.42,1.57,2.15.59.86,1.03.86,2.02.68.28-.05,1,.28,1.46.14,1.18-.37,2.43-.27,3.59-1.05,1.72-1.16,1.62-3.31.95-4.67-.88-1.8-2.31-3.17-3.65-4.59-1.04-1.11-1.86-.97-3.4-.4-1.67.62-2.61,2.03-3.89,3.06-.32.26-.38.84-.21,1.37-.18,1.42.91,2.28,1.58,3.33"/>
    <path class="cls-3" d="m578,309.15c.77-.17,1.54-.27,2.29.11.1.05.27.16.3.13,1.01-1.06,1.99-.14,2.81.22,1.05.47,1.51-.06,1.93-.73.46-.72,1-3.61.94-4.47.02-1.27-.6-2.1-1.6-2.85-1.02-.78-1.99-1.62-3.11-2.28-.21-.13-.46-.34-.63-.2-1.13.94-2.76.65-3.88,1.84-1.34,1.43-2.08,2.99-2.41,4.89-.32,1.86,1.92,3.64,3.35,3.34"/>
    <path class="cls-3" d="m637.35,416.95c-.07-1.18-.28-2.41-.68-3.58-.08-.25-.26-.46-.49-.6-.48-.29-.93-.56-1.04-.57-.24-.03-1.13-3.13-.56-3.16.03,0,.07,0,.12,0-.57-1.39-1.06-2.82-1.48-4.25-.49-1.67-.86-3.34-1.78-4.83-.58-.94-.98-1.97-1.49-2.94-.51-.97-1.63-1.4-2.45-2.11-.11-.1-.22-.21-.32-.32-.66-.98-1.61-1.81-1.98-2.93-1.11-3.36-1.74-5.16-2.38-6.86-.62-1.64-1.46-3.42-1.7-5.16-.09-.67-.18-1.31-.25-1.92-.03-.29-.34-.46-.6-.34h-.02c-.33.15-.67-.14-.6-.48.16-.69.35-1.6.32-1.74-.01-.07.2-.27.51-.51.1-.08.16-.21.17-.34.01-1.11.13-2.12.42-3.05.83-2.74-.78-5.8-.27-8.61.39-2.13.99-4.2,1.72-6.23.79-2.2,1.73-4.35,2.7-6.5,0-.02.02-.04.03-.06.1-.22.03-.46-.1-.66-.02-.02-.03-.07-.03-.1.01-.39.68-1.49,1.35-2.07.07-.06.13-.13.17-.22.37-.82.73-1.64,1.08-2.46.63-1.48,0-2.02.56-3.54.83-2.27,3.28-4.91,3.38-7.88.08-2.41,1.06-4.71,1.36-7.1.06-.04.12-.07.19-.1.11-.05.5-.58.05-1.01-.35-.32.47-.34.33-.71-.13-.07-.25-.14-.35-.21,0-.02,0-.04,0-.07-.03,0-.06,0-.09,0-.31-.26-.43-.59-.07-1.1-.22-.65-.01-1.16.54-1.54.04-1.43-.49-2.68-.93-4.01-.53-1.61-1.69-3.03-1.53-4.91.06-.67-.57-1.35-.95-2-.36-.62-.17-1.57-1.12-1.81.15-.44.81-.07.79-.59-.02-.36-.39-.47-.67-.55-.9-.26-.26-1.39-1-1.72.32-.21.56-.57,1.07-.41.05-.03.06-.04.11-.07.11-1.05.62-2.09.04-3.16-.1-.19-.17-.55.16-.74-.21-.56-.51-1.1-.37-1.72,0-.04,0-.09.03-.14-1.17-1.49-1.16-1.6.1-1.92.91-.5,1.88-.97,1.11-2.3-.05-.09-.07-.26-.02-.35.82-1.54.06-3.09-.12-4.59-.13-1.02-1.05-1.92-1.5-2.93-1.06-2.35-2.71-4.23-4.74-5.72-1.59-1.17-3.3-2.28-5.22-2.84-1.26-.36-2.4.44-3.53.88-2.42.96-3.73,2.9-4.75,5.23-.89,2.04-1.75,4.02-1.72,6.29.01.97.35,1.82.63,2.7.27.86,1.34,1.27,1.21,2.37-.06.52.47.81.85,1.06,1.33.89,2.83,1.47,4.41,1.42.92-.03,1.16.85,1.94.95.42.05-.05.5-.22.72-1.03,1.3-.95,1.22.16,2.42.61.66,1.15,1.45,1.67,2.21.44.66-.3,1.55-1.43,1.79-.38.08-.81.12-1.18.01-1.47-.42-2.93-.7-4.41-.1.28.58-.2.41-.45.46-.28.52-.65-.12-.95.07-.08.6-.17,1.19-.28,1.98-.35-1.06.29-2.47-1.42-2.5-.03,0-.05-.37-.07-.56-1.09-.18-1.89-.99-2.93-1.33-1.47-.47-2.87-1.1-4.45-.44-.29.12-.67.12-1-.17-.91-.79-1.68-.55-2.05.56-.09.29-.28.56-.48.79-.19.22.07.58-.38.8.11-.76-1.14-.59-.9-1.55.04-.17-.64-.14-.9-.02-1,.47-2.02.52-3.1.43-.69-.06-1.06.72-1.56,1.08-1.09.78-1.88,1.98-2.79,3.02-.51.58-.71,1.24-.3,2.16-.68-1.38-1.26-.88-1.9-.23-.32.32-.73.56-1.13.78-.57.32-.69.83-.54,1.37.08.29.36.53.15.85-.03.05-.22.01-.33-.02-.46-.14-.16-.57-.29-1.06-.39.82-.36,1.57-.05,2.04.26.39.23.66.18.99-.28,1.69-.6,3.38-.88,5.07-.04.26-.16.31-.37.34-.57.06-.78.78-.7.93.62,1.12-.2.85-.8,1.06-1.52.52-2.64,1.66-3.88,2.66-1.33,1.08-1.7,2.99-3.44,3.62-.61.22-.1.96-.38,1.4-.65-.66-.59-.6-1.24.12-1.65,1.83-2.03,4.21-2.75,6.42-.35,1.08.47,2.02.69,3.04.49,2.36.88,4.77,2.01,6.96.14.26.27.45.52.59.08-.15.27-.29.35-.16.23.34.23.72-.01,1.08.03.59.42.99.76,1.42.3-.33.38.02.48.18.12.2.24.44-.15.5.58,2.15,1.7,4.1,2.26,6.26.08.32.32.61.53.88.87,1.13,1.37,2.52,2.17,3.64.66.92,1.17,1.9,1.64,2.9.48.23.92.46,1.03.55.25.2,1.57,1.16,1.45,1.17-.02,0-.05.01-.09.03-.7.31-.98,1.18-.58,1.83,0,0,0,0,0,.01.85,1.37,1.74,2.68,2.2,4.25.07.23.27.47.56.66.63.43,1.1.87,1.12,1.92.02,1.11,1.25,1.9,2.16,2.58.77.57,1.71.92,2,1.96.08.3.24.55.54.54.16,0,.29.02.39.05.12.23.24.46.37.68,0,.1.01.21.02.31.07.87.71,1.73,1.49,2.11,1.59,2.54,3.14,5.11,4.27,7.85-.29.45-.33,1.23.05,1.54.87.71.18,1.62.36,2.42.06.29-.14.78.03,1.02.99,1.38.66,3.02.92,4.53.19,1.18.01,2.42.28,3.57.36,1.54.04,3.08.23,4.6.24,1.89.24,3.1.98,4.89.02.04.11.34.18.59.06.2.2.37.4.45.16.07.32.15.43.22.41.26.13.77.6,1.46.15.21-.1.67-.34,1.08-.21.36-.24.79-.09,1.18.74,2,1.72,3.91,2.33,5.95.7,2.36,1.86,4.48,3.35,6.35.52.65,1.05,1.33,1.62,1.95.07.07.17.1.27.07l.19-.06c.16-.05.33.07.33.24,0,.13,0,.28,0,.45,0,.07.04.14.09.18.87.77,1.87,1.39,3.1,1.67.95.22,1.86.41,2.59,1.16.6.61,1.51.35,2.24.42,3.22.31,6.29-.35,8.96-2.23,1.25-.88,2.16-2.28,3.6-2.91.21-.09.4-.19.58-.29.22-.12.35-.36.35-.61,0-.19,0-.35.03-.44.05-.18.53-.31,1.06-.39.18-.03.35-.12.46-.27.72-.97,1.22-2.12,1.78-3.27.79-1.64,1.31-3.28,1.43-5.04.11-1.71.76-3.4.67-5.03m-43.56-111.21c-.53.77.91,1.04.46,1.78-.46-.5-.95-1-.46-1.78m-8.51,15.48c-.31.24-.64.17-.99.05.31-.09.63-.23.99-.05"/>
    <path class="cls-3" d="m680.96,346.34c-1.27,1.17-3.68,1.08-4.94-.15-.38-.37-.96-.57-1.26-.99-.51-.73-1.59-1.44-.44-2.49-.71-.77.07-1.65-.13-2.38-.32-1.17.38-2.08.51-3.12.14-1.21,1.16-1.74,2.39-1.89,2.08-.25,3.99-.04,5.76,1.19,1.34.93,1.78,2.25,1.91,3.75-.01.2.05.46-.05.59-1.38,1.74-2.07,3.96-3.75,5.5"/>
    <path class="cls-3" d="m705.29,375.22c-1.38.89-2.7.49-3.92-.05-2.07-.91-3.81-2.22-4.48-4.62-.55-1.98.23-3.54,1.25-5.07,1.2-1.8,3.15-1.22,4.81-1.5,1.91-.2,2.49,1.42,3.19,2.57.82,1.35,1.62,2.9,1.15,4.59-.41,1.46-.48,3.09-2.01,4.08"/>
    <path class="cls-3" d="m691.38,349.95c-.48.74-1.07,1.42-1.57,2.15-.59.86-1.03.86-2.02.68-.28-.05-1.01.28-1.46.14-1.18-.37-2.43-.27-3.59-1.05-1.72-1.16-1.62-3.31-.95-4.67.88-1.8,2.31-3.17,3.65-4.59,1.04-1.11,1.86-.97,3.4-.4,1.67.62,2.61,2.03,3.89,3.06.32.26.38.84.21,1.37.18,1.42-.91,2.28-1.58,3.33"/>
    <path class="cls-3" d="m698.57,360.45c-.77-.17-1.54-.27-2.29.11-.1.05-.27.16-.3.13-1.01-1.06-1.99-.14-2.81.22-1.05.47-1.51-.06-1.93-.73-.46-.72-1-3.61-.95-4.47-.02-1.27.6-2.1,1.6-2.85,1.02-.78,1.99-1.62,3.11-2.28.21-.13.46-.34.63-.2,1.13.94,2.76.65,3.88,1.84,1.34,1.43,2.08,2.99,2.41,4.89.32,1.86-1.92,3.65-3.35,3.34"/>
    <path class="cls-3" d="m639.89,473.27c.12,1.76.63,3.4,1.43,5.04.56,1.15,1.06,2.3,1.78,3.27.11.15.28.24.46.27.53.08,1.01.21,1.06.39.02.1.03.26.03.44,0,.25.13.49.35.61.18.11.38.2.58.29,1.44.62,2.35,2.02,3.6,2.91,2.67,1.88,5.74,2.53,8.96,2.23.73-.07,1.64.19,2.24-.42.73-.75,1.64-.94,2.59-1.16,1.24-.28,2.23-.9,3.1-1.67.05-.05.09-.11.09-.18,0-.17.01-.32.01-.45,0-.17.17-.29.33-.24l.19.06c.1.03.2,0,.27-.07.57-.62,1.1-1.3,1.62-1.95,1.49-1.87,2.65-3.99,3.35-6.35.61-2.04,1.59-3.95,2.33-5.95.14-.39.11-.82-.09-1.18-.24-.42-.49-.87-.34-1.08.47-.68.19-1.19.6-1.45.11-.07.27-.15.43-.22.19-.08.34-.25.4-.45.07-.24.16-.54.18-.59.74-1.8.74-3,.98-4.89.2-1.53-.12-3.06.23-4.6.26-1.15.08-2.4.28-3.57.25-1.51-.08-3.15.92-4.53.18-.25-.03-.74.03-1.02.18-.8-.51-1.71.36-2.42.38-.31.35-1.1.05-1.54,1.13-2.74,2.68-5.31,4.27-7.85.78-.38,1.42-1.24,1.49-2.11,0-.1.01-.21.02-.31.13-.22.26-.45.37-.68.1-.04.22-.06.38-.05.3,0,.46-.24.54-.54.29-1.05,1.23-1.39,2-1.96.92-.68,2.14-1.47,2.16-2.58.02-1.05.49-1.49,1.12-1.92.28-.19.49-.43.56-.66.46-1.57,1.35-2.88,2.2-4.25,0,0,0,0,0-.01.4-.65.13-1.52-.58-1.83-.04-.02-.07-.03-.09-.03-.11-.01,1.2-.97,1.45-1.17.11-.09.55-.31,1.03-.55.48-1,.98-1.99,1.64-2.9.81-1.12,1.31-2.51,2.18-3.64.21-.27.44-.56.53-.88.56-2.16,1.69-4.11,2.26-6.26-.4-.06-.27-.31-.15-.5.1-.16.18-.51.48-.18.33-.43.73-.82.76-1.42-.24-.36-.24-.74-.01-1.08.08-.12.27.01.35.16.24-.13.38-.32.52-.59,1.13-2.19,1.52-4.6,2.01-6.96.21-1.02,1.04-1.96.69-3.04-.72-2.22-1.1-4.59-2.75-6.43-.65-.72-.59-.77-1.24-.12-.28-.43.23-1.18-.38-1.4-1.75-.63-2.11-2.54-3.44-3.62-1.24-1-2.36-2.14-3.88-2.66-.6-.21-1.43.07-.8-1.06.08-.15-.13-.87-.7-.93-.22-.02-.33-.08-.37-.34-.28-1.69-.6-3.38-.88-5.07-.06-.33-.08-.61.18-1,.31-.47.34-1.21-.05-2.04-.13.49.17.92-.29,1.06-.11.03-.3.07-.33.02-.21-.32.07-.56.15-.85.15-.54.03-1.05-.54-1.37-.4-.22-.81-.46-1.13-.78-.65-.65-1.23-1.15-1.9.23.42-.92.21-1.58-.3-2.16-.91-1.04-1.7-2.23-2.79-3.02-.49-.35-.87-1.13-1.56-1.08-1.08.09-2.1.04-3.1-.43-.26-.12-.94-.14-.9.02.24.96-1,.79-.9,1.55-.44-.22-.18-.58-.37-.8-.2-.23-.38-.5-.48-.79-.37-1.1-1.14-1.34-2.05-.56-.33.29-.71.29-1,.17-1.58-.66-2.98-.03-4.45.44-1.04.33-1.84,1.15-2.93,1.33-.02.2-.04.56-.07.56-1.71.03-1.07,1.44-1.42,2.5-.11-.78-.19-1.38-.28-1.98-.3-.2-.67.44-.95-.07-.25-.05-.74.12-.45-.46-1.49-.6-2.94-.32-4.41.1-.36.1-.8.07-1.18-.01-1.12-.24-1.86-1.13-1.43-1.79.51-.76,1.05-1.55,1.67-2.21,1.11-1.2,1.19-1.12.16-2.42-.17-.21-.63-.66-.22-.72.78-.1,1.03-.98,1.94-.95,1.58.05,3.08-.54,4.41-1.42.38-.25.91-.53.85-1.06-.12-1.1.94-1.51,1.22-2.37.28-.89.62-1.73.63-2.7.03-2.28-.83-4.26-1.72-6.29-1.02-2.33-2.33-4.27-4.75-5.23-1.13-.45-2.27-1.25-3.53-.88-1.92.56-3.63,1.67-5.22,2.84-2.02,1.49-3.68,3.36-4.74,5.72-.45,1.01-1.37,1.91-1.5,2.93-.19,1.49-.95,3.04-.12,4.58.05.09.03.26-.02.35-.78,1.33.2,1.8,1.11,2.3,1.26.32,1.26.43.1,1.92.02.06.03.1.03.14.13.62-.16,1.17-.38,1.72.33.18.26.54.16.74-.58,1.08-.07,2.11.04,3.16.05.03.06.04.12.07.5-.16.75.2,1.07.41-.75.33-.1,1.46-1,1.72-.28.08-.65.18-.67.54-.03.52.64.15.79.59-.95.23-.76,1.18-1.12,1.8-.38.65-1.01,1.34-.95,2,.16,1.88-1,3.3-1.53,4.91-.44,1.33-.97,2.59-.93,4.01.55.38.76.89.54,1.54.36.51.24.84-.07,1.1-.03,0-.06,0-.09,0,0,.02,0,.04,0,.07-.1.07-.22.14-.35.21-.14.37.68.38.33.71-.46.43-.06.96.05,1.01.07.03.13.06.19.1.3,2.39,1.28,4.69,1.36,7.1.1,2.96,2.55,5.6,3.38,7.88.55,1.51-.07,2.06.56,3.54.35.82.72,1.64,1.08,2.46.04.08.1.16.17.22.67.59,1.34,1.68,1.35,2.07,0,.03-.02.07-.03.1-.14.2-.2.44-.1.66,0,.02.02.04.03.06.97,2.14,1.9,4.3,2.7,6.5.73,2.03,1.34,4.1,1.72,6.23.51,2.82-1.1,5.88-.27,8.61.29.93.41,1.94.42,3.05,0,.13.06.26.17.34.31.24.52.45.51.51-.03.14.17,1.05.32,1.74.08.35-.27.63-.59.49h-.02c-.27-.12-.57.05-.6.34-.07.61-.15,1.25-.25,1.92-.24,1.74-1.08,3.52-1.7,5.16-.64,1.69-1.27,3.49-2.38,6.86-.37,1.12-1.32,1.95-1.98,2.93-.1.11-.21.22-.32.32-.82.71-1.94,1.14-2.45,2.11-.51.97-.91,2-1.49,2.94-.92,1.49-1.29,3.16-1.78,4.83-.42,1.43-.9,2.86-1.48,4.25.04,0,.08,0,.12,0,.56.03-.33,3.13-.56,3.16-.11.01-.57.28-1.04.57-.23.14-.4.35-.49.6-.4,1.17-.61,2.4-.68,3.58-.1,1.63.55,3.32.67,5.03m42.44-114.45c-.46-.74.99-1.01.46-1.78.5.78,0,1.28-.46,1.78m9.96,13.76c-.35.12-.68.19-.99-.05.36-.18.68-.04.99.05"/>
    <path class="cls-1" d="m692.04,488.19v-56.86h5.4v3.55c.89-1.08,2-2.06,3.33-2.93,1.33-.86,2.96-1.3,4.89-1.3,2.07,0,3.74.48,5,1.44,1.26.96,2.23,2.26,2.92,3.89.69,1.63,1.16,3.46,1.41,5.48.25,2.02.37,4.1.37,6.22v9.03c0,3.65-.3,6.82-.89,9.51-.59,2.69-1.64,4.79-3.15,6.29-1.51,1.51-3.59,2.26-6.26,2.26-1.73,0-3.22-.44-4.48-1.33-1.26-.89-2.31-1.8-3.15-2.74v17.47h-5.4Zm12.22-17.7c1.63,0,2.85-.52,3.66-1.55.82-1.04,1.36-2.58,1.63-4.63.27-2.05.41-4.53.41-7.44v-9.18c0-2.76-.14-5.1-.41-7-.27-1.9-.83-3.34-1.67-4.33-.84-.99-2.1-1.48-3.78-1.48-1.38,0-2.65.37-3.81,1.11-1.16.74-2.11,1.48-2.85,2.22v29.17c.79.84,1.76,1.57,2.93,2.18,1.16.62,2.46.93,3.89.93"/>
    <path class="cls-1" d="m730.32,474.79c-1.73,0-3.23-.43-4.52-1.3-1.28-.86-2.28-2.02-3-3.48-.72-1.46-1.07-3.05-1.07-4.78,0-2.17.31-4.02.93-5.55.62-1.53,1.6-2.9,2.96-4.11,1.36-1.21,3.13-2.39,5.33-3.55,2.2-1.16,4.88-2.46,8.03-3.89v-3.04c0-2.62-.16-4.68-.48-6.18-.32-1.5-.86-2.58-1.63-3.22-.77-.64-1.84-.96-3.22-.96-1.14,0-2.15.22-3.04.67-.89.45-1.6,1.2-2.15,2.26-.54,1.06-.82,2.53-.82,4.4v1.48l-5.33-.07c.05-4.34.98-7.56,2.78-9.66,1.8-2.1,4.75-3.15,8.85-3.15,3.85,0,6.55,1.15,8.11,3.44,1.55,2.29,2.33,5.86,2.33,10.7v20.81c0,.74.02,1.69.07,2.85.05,1.16.1,2.26.15,3.29.05,1.04.1,1.83.15,2.37h-4.81c-.1-.94-.25-1.99-.44-3.15-.2-1.16-.32-2.08-.37-2.78-.59,1.73-1.64,3.26-3.15,4.59-1.51,1.33-3.39,2-5.66,2m1.7-4.59c1.08,0,2.07-.27,2.96-.81.89-.54,1.68-1.2,2.37-1.96.69-.76,1.23-1.54,1.63-2.33v-13.33c-2.12,1.09-3.94,2.07-5.44,2.96-1.51.89-2.73,1.75-3.66,2.59-.94.84-1.63,1.79-2.07,2.85-.44,1.06-.67,2.31-.67,3.74,0,2.27.49,3.89,1.48,4.85.99.96,2.12,1.44,3.41,1.44"/>
    <path class="cls-1" d="m752.68,474.13v-42.8h5.48v5.85c1.38-2.27,2.96-3.89,4.74-4.85,1.78-.96,3.48-1.44,5.11-1.44h.44c.15,0,.32.03.52.07v5.77c-.35-.15-.77-.26-1.26-.33-.49-.07-.96-.11-1.41-.11-1.68,0-3.2.4-4.55,1.18-1.36.79-2.55,2.05-3.59,3.78v32.88h-5.48Z"/>
    <path class="cls-1" d="m774.9,418.08h5.4v7.33h-5.4v-7.33Zm0,13.25h5.4v42.8h-5.4v-42.8Z"/>
    <path class="cls-1" d="m799.18,474.79c-3.41,0-6.12-1.1-8.14-3.29-2.02-2.2-3.18-5.15-3.48-8.85l4.52-1.41c.3,3.31,1.06,5.71,2.29,7.22,1.23,1.51,2.96,2.26,5.18,2.26,1.88,0,3.32-.53,4.33-1.59,1.01-1.06,1.52-2.56,1.52-4.48,0-1.38-.42-2.78-1.26-4.18-.84-1.41-2.15-2.88-3.92-4.41l-5.85-5.03c-1.92-1.63-3.38-3.26-4.37-4.89-.99-1.63-1.48-3.58-1.48-5.85,0-2.07.43-3.81,1.3-5.22.86-1.41,2.06-2.49,3.59-3.26,1.53-.76,3.31-1.15,5.33-1.15,3.26,0,5.72,1.05,7.4,3.15,1.68,2.1,2.59,4.8,2.74,8.11l-3.85,1.26c-.1-1.93-.4-3.52-.89-4.78-.49-1.26-1.17-2.18-2.04-2.78-.86-.59-1.91-.89-3.15-.89-1.63,0-2.95.46-3.96,1.37-1.01.91-1.52,2.18-1.52,3.81,0,1.28.25,2.42.74,3.41.49.99,1.41,2.1,2.74,3.33l6.07,5.4c1.18,1.04,2.32,2.15,3.41,3.33,1.08,1.18,1.97,2.51,2.67,3.96.69,1.46,1.04,3.17,1.04,5.15,0,2.22-.46,4.09-1.37,5.59-.91,1.51-2.18,2.67-3.81,3.48-1.63.81-3.55,1.22-5.77,1.22"/>
    <path class="cls-1" d="m725.03,414.83c-6.64,0-11.85-1.3-15.61-3.92-3.77-2.61-6.4-6.17-7.89-10.69-1.49-4.51-2.24-9.72-2.24-15.61v-32.35c0-6.19.74-11.56,2.24-16.12,1.49-4.55,4.12-8.06,7.89-10.52,3.77-2.46,8.97-3.69,15.61-3.69,6.27,0,11.17,1.06,14.72,3.19,3.54,2.13,6.06,5.17,7.55,9.12,1.49,3.96,2.24,8.54,2.24,13.77v7.61h-15.89v-7.83c0-2.54-.13-4.85-.39-6.94-.26-2.09-.97-3.75-2.13-4.98-1.16-1.23-3.15-1.85-5.99-1.85s-4.91.65-6.21,1.96-2.15,3.06-2.52,5.26c-.37,2.2-.56,4.68-.56,7.44v39.4c0,3.29.26,5.99.78,8.12.52,2.13,1.47,3.73,2.85,4.81,1.38,1.08,3.26,1.62,5.65,1.62,2.76,0,4.72-.65,5.88-1.96,1.16-1.31,1.88-3.04,2.18-5.21.3-2.16.45-4.59.45-7.28v-8.17h15.89v7.28c0,5.37-.71,10.13-2.13,14.27-1.42,4.14-3.9,7.39-7.44,9.74-3.54,2.35-8.53,3.53-14.94,3.53"/>
    <path class="cls-1" d="m761.07,413.6v-90.66h26.64c5.45,0,9.87,1.01,13.26,3.02,3.39,2.01,5.89,4.94,7.5,8.79,1.6,3.84,2.41,8.49,2.41,13.93,0,5.89-1.01,10.65-3.02,14.27-2.01,3.62-4.83,6.25-8.45,7.89-3.62,1.64-7.89,2.46-12.82,2.46h-8.95v26.07c0,7.86-6.37,14.22-14.22,14.22h-2.34Zm16.56-51.93h6.27c2.98,0,5.32-.43,6.99-1.29,1.68-.86,2.83-2.24,3.47-4.14.63-1.9.95-4.46.95-7.67s-.24-5.95-.73-8c-.49-2.05-1.53-3.56-3.13-4.53-1.61-.97-4.12-1.46-7.55-1.46h-6.27v27.08Z"/>
    <path class="cls-1" d="m686.01,373.97c.27.03.51-.19.5-.46l-1.87-50.37c-7.67,0-13.96,6.1-14.18,13.77l-.96,32.7c-.04,1.4.99,2.59,2.38,2.75l14.13,1.61Z"/>
    <path class="cls-1" d="m669.1,383.23l-.08,2.59c-.02.54.39,1.01.93,1.07l15.92,1.82c.64.07,1.19-.44,1.16-1.08l-.1-2.61c-.02-.52-.41-.94-.93-1l-15.75-1.8c-.61-.07-1.15.4-1.16,1.01"/>
    <path class="cls-1" d="m669.32,375.88l-.08,2.59c-.02.54.39,1.01.93,1.07l15.43,1.76c.63.07,1.19-.44,1.16-1.08l-.1-2.61c-.02-.52-.41-.94-.93-1l-15.25-1.74c-.61-.07-1.15.4-1.16,1.01"/>
    <path class="cls-1" d="m669.18,397.15c-.26-.03-.49.17-.5.43l-.55,18.59c8.78,0,16.18-5.88,18.49-13.92.45-1.58-.66-3.18-2.29-3.37l-15.16-1.73Z"/>
    <path class="cls-1" d="m687.32,395.33l-.11-2.89c-.02-.52-.41-.94-.93-1l-16.24-1.86c-.61-.07-1.15.4-1.16,1.01l-.09,2.87c-.02.54.39,1.01.93,1.07l16.43,1.88c.63.07,1.19-.44,1.16-1.08"/>
    <path class="cls-1" d="m669.3,302.11l2.4,21.44c6.79,0,12.39-5.31,12.75-12.09l1.76-33.36-7.12,5.06c-6.14,4.36-9.79,11.42-9.79,18.95m4.92-5.95c0-.13.1-.25.23-.25h1.12c3.16,0,5.29,2.82,5.16,6.22l-.3,8.53c-.08,2.19-1.75,3.91-3.78,3.91h-.86c-.26,0-.47-.2-.48-.46l-1.09-17.96Z"/>
  </g>
</svg>