<?xml version="1.0" encoding="UTF-8"?>
<svg id="Calque_1" data-name="Calque 1" xmlns="http://www.w3.org/2000/svg" viewBox="0 0 1380 781">
  <defs>
    <style>
      .cls-1 {
        fill: #fbfbfe;
      }

      .cls-2 {
        fill: #f0ab3a;
      }
    </style>
  </defs>
  <rect class="cls-2" x="-22" y="-13" width="1426.54" height="814"/>
  <g>
    <path class="cls-1" d="m540.51,358.28c.93,0,1.4,1.4,1.4,4.2h1.4l2.1-1.4.7.7-3.5,39.22c2.97-1.4,10.9-3.03,23.81-4.9h.7v.7c-16.34,2.66-24.51,4.77-24.51,6.3l7.7-2.1v.7l13.31-2.8v.7l.7-.7h.7l.7.7,3.5-.7h2.8l4.9.7v.7c0,1.4-3.5,2.57-10.51,3.5v.7l.7-.7h.7l4.9.7.7-.7v2.1l-23.11,5.6-14.71,5.6h-2.1l-2.8-3.5h-.7v-.7c0-1.18.93-1.88,2.8-2.1v-2.1l-2.1-2.8,2.8-31.52h.7v2.8l-.7,4.9h1.4l-1.4,9.11.7.7-.7,2.8v3.5h.7l2.8-37.12c.93,0,1.4-.7,1.4-2.1l.7-.7h1.4Z"/>
    <path class="cls-1" d="m601.36,355.48c.3,1.4,2.17,2.1,5.6,2.1l5.6,24.51h4.9v.7l-4.2.7v.7c1.4,0,2.1.47,2.1,1.4h5.6v.7c0,1.04-2.33,1.98-7,2.8l1.4,4.2-.7,2.1.7,4.2-.7.7h.7l-.7.7.7,8.4v4.2l-.7-.7h-.7l2.1,10.51h-1.4c0-1.4-.47-2.1-1.4-2.1v.7l.7,2.1h-.7l-.7-.7h-.7c0,1.4-.47,2.1-1.4,2.1l-3.5-11.91h-.7v2.8h-.7l-1.4-8.4,2.1,1.4v-.7c-.38-4.2-1.09-6.3-2.1-6.3l.7-.7v-2.1h-1.4v2.1h-.7v-2.8l.7-.7h-.7l-.7.7v-2.8h.7l.7.7h.7l-.7-.7v-4.2l-15.41,3.5v1.4l4.9-1.4,2.8.7,3.5-.7v1.4c-9.81,1.76-14.71,4.09-14.71,7-1.24,5.14-2.64,8.4-4.2,9.81v1.4h-2.1l-.7-.7h-.7v.7l-2.1-1.4,1.4-4.2h-.7c-1.4,0-2.1,1.87-2.1,5.6l-1.4-1.4.7-4.2-2.1-2.1,11.91-28.72h.7c0,1.4.47,2.1,1.4,2.1l.7-3.5-.7.7h-.7v-2.8l.7-3.5.7.7h.7l-.7-.7v-.7l1.4-2.8h.7l.7.7h.7v-.7c0-.93-.7-1.4-2.1-1.4l3.5-9.81h2.8l-.7.7v.7c3.24-1.87,6.28-2.8,9.11-2.8Zm-20.31,30.12l-.7,2.8h.7l1.4-2.8h-1.4Zm2.1-3.5l-.7.7v1.4h.7l.7-2.1h-.7Zm4.2,2.8l-.7,2.8h.7l.7-.7v-2.1h-.7Zm3.5-9.11l-1.4,4.9-.7-.7h-.7l.7,2.8h.7l2.1-6.3v-.7h-.7Zm6.3-4.2l-5.6,14.71h1.4c4.67,0,7.24-1.4,7.7-4.2l-2.8-10.51h-.7Zm-4.2,16.11v.7h1.4c4.2-.47,6.3-1.17,6.3-2.1h-.7l-7,1.4Zm9.81,15.41h1.4v4.2h-.7l-.7-4.2Zm2.8,7v1.4l2.1-.7v-1.4l-2.1.7Zm7-2.1v1.4l.7,2.8h.7v-1.4l-.7-2.8h-.7Z"/>
    <path class="cls-1" d="m645.4,357.66c1.24.93,5.16,1.4,11.78,1.4l-.04.7h-4.9l-.04.7c5.85,0,9.5,1.4,10.96,4.2l-.08,1.4h-3.5l-.04.7,4.86.7-.04.7h-4.2l-.04.7c1.4,0,2.07.47,2.02,1.4-8.32,0-15.75,3.04-22.29,9.11l-.04.7c9.04,2.42,16.19,7.79,21.47,16.11l-.04.7c-1.7,6.04-6.47,11.65-14.3,16.81l-4.28.7-.04.7h1.4c-.06,1.26-4.34,2.66-12.85,4.2l.08-1.4h3.5l.08-.7c-2.99,0-5.7-1.63-8.12-4.9-2.09-1.07-3.13-3.12-3.13-6.14,0-.27.01-.56.04-.87l2.18-1.4,2.02,1.4h1.4c13.18-2.06,19.98-6.26,20.39-12.61-5.52-2.8-9.17-4.2-10.96-4.2l-.04.7-6.88-2.8.66.7-.04,1.4c-5.82-4.29-8.67-7.55-8.53-9.81l5.48-9.81,3.67-2.8-.08,1.4,12.52-9.81Zm-9.81,58.13l-.04.7h2.8l3.54-.7v-.7h-.7l-5.6.7Zm.25-39.22l-.04.7,12.36-7.7,5.69-1.4.08-1.4h-1.4c-7.39,2.75-12.95,6.02-16.69,9.81Zm3.87,28.72h.7l1.48-1.4h-.7l-1.48,1.4Zm3.83,5.6v.7h.7l2.93-2.1-3.63,1.4Zm8.78-5.6l-3.01,3.5h.7l3.01-3.5h-.7Z"/>
    <path class="cls-1" d="m688.7,359.64h.7c6.78,0,11.92,2.8,15.41,8.4v.7h-1.4l.7.7v.7c-2.8-.33-4.2-.8-4.2-1.4-10.9,0-19.08,5.6-24.51,16.81l-1.4,4.9,2.1,13.31h2.1c5.82,0,12.36-4.2,19.61-12.61h.7v.7c-4.97,7.17-10.57,11.37-16.81,12.61v.7h.7c4.89,0,10.96-4.2,18.21-12.61l2.1,2.8v2.1c0,1.51-3.5,5.01-10.51,10.51l-.7.7h-.7v1.4c7.94-3.87,11.91-6.67,11.91-8.4h1.4v.7c-5.88,7-12.65,10.51-20.31,10.51v.7h3.5l2.8-.7h.7v.7l-8.4,1.36c-3.54,0-7.28-2.55-11.21-7.66v.7l3.5,5.6v.66h-2.1c-4.34-2.97-6.91-6.69-7.7-11.17l-.7-9.11c0-11.7,2.33-19.17,7-22.41v.7l-4.2,7v.7h.7c0-4.45,5.84-10.75,17.51-18.91l-2.1.7h-.7v-.7l6.3-1.4Zm-22.41,41.32v2.1l.7,2.8h.7v-.7l-.7-4.2h-.7Zm8.4-33.62v.7l-3.5,3.5v-.7l3.5-3.5Zm6.3-4.9h.7v.7l-4.9,2.1c0-.93,1.4-1.87,4.2-2.8Z"/>
    <path class="cls-1" d="m733.61,355.48c.3,1.4,2.17,2.1,5.6,2.1l5.6,24.51h4.9v.7l-4.2.7v.7c1.4,0,2.1.47,2.1,1.4h5.6v.7c0,1.04-2.33,1.98-7,2.8l1.4,4.2-.7,2.1.7,4.2-.7.7h.7l-.7.7.7,8.4v4.2l-.7-.7h-.7l2.1,10.51h-1.4c0-1.4-.47-2.1-1.4-2.1v.7l.7,2.1h-.7l-.7-.7h-.7c0,1.4-.47,2.1-1.4,2.1l-3.5-11.91h-.7v2.8h-.7l-1.4-8.4,2.1,1.4v-.7c-.38-4.2-1.09-6.3-2.1-6.3l.7-.7v-2.1h-1.4v2.1h-.7v-2.8l.7-.7h-.7l-.7.7v-2.8h.7l.7.7h.7l-.7-.7v-4.2l-15.41,3.5v1.4l4.9-1.4,2.8.7,3.5-.7v1.4c-9.81,1.76-14.71,4.09-14.71,7-1.24,5.14-2.64,8.4-4.2,9.81v1.4h-2.1l-.7-.7h-.7v.7l-2.1-1.4,1.4-4.2h-.7c-1.4,0-2.1,1.87-2.1,5.6l-1.4-1.4.7-4.2-2.1-2.1,11.91-28.72h.7c0,1.4.47,2.1,1.4,2.1l.7-3.5-.7.7h-.7v-2.8l.7-3.5.7.7h.7l-.7-.7v-.7l1.4-2.8h.7l.7.7h.7v-.7c0-.93-.7-1.4-2.1-1.4l3.5-9.81h2.8l-.7.7v.7c3.24-1.87,6.28-2.8,9.11-2.8Zm-20.31,30.12l-.7,2.8h.7l1.4-2.8h-1.4Zm2.1-3.5l-.7.7v1.4h.7l.7-2.1h-.7Zm4.2,2.8l-.7,2.8h.7l.7-.7v-2.1h-.7Zm3.5-9.11l-1.4,4.9-.7-.7h-.7l.7,2.8h.7l2.1-6.3v-.7h-.7Zm6.3-4.2l-5.6,14.71h1.4c4.67,0,7.24-1.4,7.7-4.2l-2.8-10.51h-.7Zm-4.2,16.11v.7h1.4c4.2-.47,6.3-1.17,6.3-2.1h-.7l-7,1.4Zm9.81,15.41h1.4v4.2h-.7l-.7-4.2Zm2.8,7v1.4l2.1-.7v-1.4l-2.1.7Zm7-2.1v1.4l.7,2.8h.7v-1.4l-.7-2.8h-.7Z"/>
    <path class="cls-1" d="m767.02,358.78l1.4,2.1-.7,3.5.7.7h.7l.7-3.5h1.4l.7,2.1c-3.74,13.46-5.6,23.96-5.6,31.52.47,5.14,1.4,7.7,2.8,7.7l16.11-18.21.7-3.5v-19.61l1.4-1.4c.93,0,1.4.93,1.4,2.8h.7c0-1.87,1.17-2.8,3.5-2.8l1.4,2.8-.7,3.5c.93,0,1.4-1.17,1.4-3.5h1.4l.7.7h.7l-3.5,50.43-.7,2.8c-1.87,0-2.8.93-2.8,2.8h-2.8l.7-7h-1.4v4.2l-2.1,2.1v-.7l.7-7c-1.4,0-2.1-.93-2.1-2.8h-.7l-11.91,5.6-5.6-1.4v.7c-4.83,0-8.1-7-9.81-21.01,1.87-21.01,3.73-31.52,5.6-31.52v-.7h.7v2.8h-1.4v1.4l.7.7v.7h-.7l.7,2.1-2.1,3.5h.7l.7-.7-2.1,12.61v2.8h.7c1.48-18.21,4.05-27.32,7.7-27.32Zm-8.4,28.02l-.7.7v5.6h.7l.7-6.3h-.7Zm1.4,16.81v1.4l.7,2.1h.7v-1.4l-.7-2.1h-.7Zm4.9,3.5v.7c0,1.62,2.1,3.02,6.3,4.2h1.4v-.7c-2.69-.03-5.26-1.43-7.7-4.2Zm15.41-14.71l-4.9,5.6h.7l4.9-5.6h-.7Z"/>
    <path class="cls-1" d="m810.08,357.58c5.14,2.64,7.7,6.37,7.7,11.21l4.2,6.3,2.1-2.1h.7l-2.8,4.2.7.7h.7c10.44-12.14,17.21-18.21,20.31-18.21,1.7,0,3.1,1.17,4.2,3.5,1.4,0,2.1.47,2.1,1.4,0,1.76-3.97,5.73-11.91,11.91l-9.81,10.51v1.4c4.2,6.92,7.7,14.63,10.51,23.11l-.7,2.1h.7l-3.5,4.9h-2.1v-1.4l-2.1,1.4-9.11-21.71h-.7c-4.53,5.52-9.2,13.46-14.01,23.81h-1.4v-1.4l.7-.7-.7-.7v-.7c2.33-5.69,6.54-13.39,12.61-23.11h.7v-2.1c-9.34,12.91-14.01,21.08-14.01,24.51l-2.8,1.4c-1.51,0-3.15-1.63-4.9-4.9,0-2.64,5.6-12.44,16.81-29.42-4.28-7.99-6.85-14.06-7.7-18.21h.7l-2.8-7h.7l.7.7,4.2-1.4Zm-11.21,55.33l15.41-24.51c.93,0,1.4-.93,1.4-2.8h-.7c-8.27,10.82-13.64,19.93-16.11,27.32Zm30.12-44.83h.7l-4.9,4.9v-.7l4.2-4.2Zm1.4,10.51l-1.4,2.1h.7l1.4-2.1h-.7Zm9.81-20.31h.7l-10.51,9.81h-.7v-.7l10.51-9.11Zm-9.11,54.63v.7l.7,2.8h.7v-2.8l-.7-.7h-.7Z"/>
  </g>
</svg>