<?xml version="1.0" encoding="UTF-8"?>
<svg id="Calque_1" data-name="Calque 1" xmlns="http://www.w3.org/2000/svg" viewBox="0 0 1380 781">
  <defs>
    <style>
      .cls-1 {
        fill: #fff;
      }

      .cls-2 {
        fill: #269aa5;
      }
    </style>
  </defs>
  <rect class="cls-2" x="-13" y="-3" width="1408" height="800"/>
  <g>
    <g>
      <path class="cls-1" d="m812.18,364.54h0v116.81h-116.81c0-64.47,52.34-116.81,116.81-116.81Z"/>
      <path class="cls-1" d="m684.63,364.54h0v116.81h-116.81c0-64.47,52.34-116.81,116.81-116.81Z"/>
      <path class="cls-1" d="m567.82,240.35h116.81v116.81h0c-64.47,0-116.81-52.34-116.81-116.81h0Z" transform="translate(1252.45 597.5) rotate(180)"/>
      <path class="cls-1" d="m695.37,240.35h116.81v116.81h0c-64.47,0-116.81-52.34-116.81-116.81h0Z" transform="translate(1507.55 597.5) rotate(180)"/>
    </g>
    <g>
      <path class="cls-1" d="m599.47,500.03v5.37h-10.67v34.73h-6.58v-34.73h-10.73v-5.37h27.98Z"/>
      <path class="cls-1" d="m616.51,509.18c1.6-.9,3.49-1.36,5.68-1.36v6.81h-1.67c-2.58,0-4.53.66-5.86,1.96-1.33,1.31-1.99,3.58-1.99,6.81v16.73h-6.58v-31.79h6.58v4.62c.96-1.62,2.24-2.88,3.84-3.78Z"/>
      <path class="cls-1" d="m628.05,515.61c1.33-2.46,3.13-4.38,5.42-5.74,2.29-1.36,4.82-2.05,7.59-2.05,2.5,0,4.68.49,6.55,1.47,1.86.98,3.35,2.2,4.47,3.66v-4.62h6.63v31.79h-6.63v-4.73c-1.12,1.5-2.63,2.75-4.56,3.75-1.92,1-4.12,1.5-6.58,1.5-2.73,0-5.23-.7-7.5-2.11-2.27-1.4-4.07-3.37-5.39-5.88-1.33-2.52-1.99-5.38-1.99-8.57s.66-6.02,1.99-8.48Zm22.67,2.88c-.9-1.62-2.09-2.85-3.55-3.69-1.46-.85-3.04-1.27-4.73-1.27s-3.27.41-4.73,1.24c-1.46.83-2.64,2.04-3.55,3.63-.9,1.6-1.36,3.49-1.36,5.68s.45,4.12,1.36,5.77c.9,1.65,2.1,2.91,3.58,3.78,1.48.87,3.05,1.3,4.7,1.3s3.27-.42,4.73-1.27c1.46-.85,2.64-2.09,3.55-3.72.9-1.63,1.36-3.55,1.36-5.74s-.45-4.1-1.36-5.71Z"/>
      <path class="cls-1" d="m667.17,515.58c1.33-2.48,3.16-4.39,5.51-5.74,2.35-1.35,5.04-2.02,8.08-2.02,3.85,0,7.03.91,9.55,2.74,2.52,1.83,4.22,4.43,5.11,7.82h-7.1c-.58-1.58-1.5-2.81-2.77-3.69-1.27-.88-2.87-1.33-4.79-1.33-2.69,0-4.84.95-6.43,2.86-1.6,1.9-2.39,4.57-2.39,7.99s.8,6.1,2.39,8.02c1.6,1.92,3.74,2.88,6.43,2.88,3.81,0,6.33-1.67,7.56-5.02h7.1c-.92,3.23-2.65,5.8-5.19,7.7-2.54,1.9-5.69,2.86-9.46,2.86-3.04,0-5.73-.68-8.08-2.05-2.35-1.36-4.18-3.29-5.51-5.77-1.33-2.48-1.99-5.36-1.99-8.62s.66-6.14,1.99-8.63Z"/>
      <path class="cls-1" d="m714.57,524.27l14.65,15.87h-8.88l-11.77-13.67v13.67h-6.58v-42.7h6.58v24.81l11.54-13.9h9.12l-14.65,15.92Z"/>
      <path class="cls-1" d="m741.63,513.71v17.6c0,1.19.28,2.05.84,2.57.56.52,1.51.78,2.86.78h4.04v5.48h-5.19c-2.96,0-5.23-.69-6.81-2.08-1.58-1.38-2.37-3.63-2.37-6.75v-17.6h-3.75v-5.37h3.75v-7.9h6.64v7.9h7.73v5.37h-7.73Z"/>
      <path class="cls-1" d="m761.07,538.6c-2.42-1.36-4.33-3.29-5.71-5.77-1.38-2.48-2.08-5.36-2.08-8.62s.71-6.1,2.13-8.6c1.42-2.5,3.37-4.42,5.83-5.77,2.46-1.35,5.21-2.02,8.25-2.02s5.79.67,8.25,2.02c2.46,1.35,4.4,3.27,5.83,5.77,1.42,2.5,2.13,5.37,2.13,8.6s-.73,6.1-2.19,8.6c-1.46,2.5-3.45,4.43-5.97,5.8-2.52,1.37-5.3,2.05-8.34,2.05s-5.71-.68-8.13-2.05Zm12.89-4.88c1.48-.81,2.68-2.02,3.61-3.63s1.38-3.58,1.38-5.88-.44-4.26-1.33-5.86c-.89-1.6-2.06-2.8-3.52-3.61-1.46-.81-3.04-1.21-4.73-1.21s-3.26.4-4.7,1.21c-1.44.81-2.59,2.01-3.43,3.61-.85,1.6-1.27,3.55-1.27,5.86,0,3.42.88,6.07,2.63,7.93,1.75,1.87,3.95,2.8,6.61,2.8,1.69,0,3.28-.4,4.76-1.21Z"/>
      <path class="cls-1" d="m802.64,509.18c1.6-.9,3.49-1.36,5.68-1.36v6.81h-1.67c-2.58,0-4.53.66-5.86,1.96-1.33,1.31-1.99,3.58-1.99,6.81v16.73h-6.58v-31.79h6.58v4.62c.96-1.62,2.24-2.88,3.84-3.78Z"/>
    </g>
  </g>
</svg>