<?xml version="1.0" encoding="UTF-8"?>
<svg id="Calque_1" data-name="Calque 1" xmlns="http://www.w3.org/2000/svg" viewBox="0 0 172 172">
  <defs>
    <style>
      .cls-1 {
        fill: #99f;
      }

      .cls-2 {
        fill: #00005b;
      }
    </style>
  </defs>
  <rect class="cls-2" width="172" height="172" rx="38.93" ry="38.93"/>
  <g>
    <path class="cls-1" d="m79.15,92.84h-12.41l-2.36,7.08h-7.52l12.78-34.34h6.56l12.85,34.34h-7.52l-2.38-7.08Zm-10.5-5.73h8.58l-4.32-12.85-4.27,12.85Z"/>
    <path class="cls-1" d="m103.56,100.39c-3.74,0-6.79-1.15-9.14-3.44-2.35-2.3-3.53-5.35-3.53-9.17v-.66c0-2.56.5-4.85,1.49-6.87.99-2.02,2.39-3.58,4.21-4.67,1.82-1.09,3.89-1.64,6.21-1.64,3.49,0,6.24,1.1,8.24,3.3,2,2.2,3.01,5.32,3.01,9.36v2.78h-16.25c.22,1.67.88,3,1.99,4.01,1.11,1.01,2.51,1.51,4.21,1.51,2.63,0,4.68-.95,6.16-2.85l3.35,3.75c-1.02,1.45-2.41,2.57-4.15,3.38-1.75.81-3.68,1.21-5.8,1.21Zm-.78-20.97c-1.35,0-2.45.46-3.29,1.37-.84.92-1.38,2.23-1.62,3.93h9.48v-.54c-.03-1.52-.44-2.69-1.23-3.52s-1.9-1.24-3.35-1.24Z"/>
  </g>
</svg>