<?xml version="1.0" encoding="UTF-8"?>
<svg id="Calque_1" data-name="Calque 1" xmlns="http://www.w3.org/2000/svg" viewBox="0 0 172 172">
  <defs>
    <style>
      .cls-1 {
        fill: #440a0a;
      }

      .cls-2 {
        fill: #ffa200;
      }
    </style>
  </defs>
  <rect class="cls-1" width="172" height="172" rx="38.93" ry="38.93"/>
  <g>
    <path class="cls-2" d="m85.8,92.84h-12.41l-2.36,7.08h-7.52l12.78-34.34h6.56l12.85,34.34h-7.52l-2.38-7.08Zm-10.5-5.73h8.58l-4.32-12.85-4.27,12.85Z"/>
    <path class="cls-2" d="m98.42,67.8c0-1.02.34-1.86,1.03-2.52.68-.66,1.62-.99,2.79-.99s2.09.33,2.78.99c.69.66,1.04,1.5,1.04,2.52s-.35,1.89-1.05,2.55c-.7.66-1.62.99-2.77.99s-2.07-.33-2.77-.99c-.7-.66-1.05-1.51-1.05-2.55Zm7.24,32.12h-6.84v-25.52h6.84v25.52Z"/>
  </g>
</svg>