<?xml version="1.0" encoding="UTF-8"?>
<svg id="Calque_1" data-name="Calque 1" xmlns="http://www.w3.org/2000/svg" viewBox="0 0 148 169.67">
  <defs>
    <style>
      .cls-1 {
        fill: #fff;
      }

      .cls-2 {
        fill: #007db7;
      }
    </style>
  </defs>
  <path class="cls-2" d="m126.1,158.1l-49.12,11.25c-1.89.43-3.85.43-5.74,0l-49.33-11.25c-5.44-1.24-9.46-5.85-9.96-11.4L.05,14.03C-.62,6.49,5.31,0,12.88,0h122.24c7.57,0,13.5,6.49,12.83,14.03l-11.9,132.66c-.5,5.56-4.52,10.16-9.95,11.4Z"/>
  <path class="cls-1" d="m94.13,115.54c0,11.25-9.17,20.43-20.43,20.43s-20.43-9.17-20.43-20.43h14.71c0,3.2,2.51,5.8,5.71,5.8s5.71-2.6,5.71-5.8-2.6-5.71-5.71-5.71v-.09h-5.19v-14.63h5.19c2.51,0,4.5-2.08,4.5-4.59s-1.99-4.5-4.5-4.5-4.59,1.99-4.59,4.5h-14.63c0-10.56,8.57-19.21,19.21-19.21s19.21,8.66,19.21,19.21c0,4.33-1.47,8.4-3.89,11.6,3.12,3.64,5.11,8.31,5.11,13.42Z"/>
  <g>
    <path class="cls-1" d="m43.07,42.27c-2.89-2.97-4.48-6.74-4.48-10.89s1.59-8,4.48-10.89c6.03-6.03,15.75-6.03,21.78,0l-4.98,4.98c-3.27-3.27-8.54-3.22-11.77,0-1.55,1.63-2.43,3.69-2.43,5.9s.88,4.23,2.43,5.86c3.22,3.22,8.5,3.27,11.77,0l4.98,5.03c-3.02,3.01-6.87,4.48-10.89,4.48s-7.87-1.47-10.89-4.48Z"/>
    <path class="cls-1" d="m70,45.75c-3.02-1.97-4.77-5.19-4.77-8.88h7.08c0,1.68.96,2.55,1.51,2.89,1,.67,2.22.71,3.35.21,1.59-.67,1.76-2.05,1.76-2.6,0-.59-.17-1.84-1.76-2.64-.63-.29-1.3-.46-2.09-.75-1.38-.46-2.93-.92-4.44-1.88-3.94-2.47-5.4-7.66-3.27-11.81,2.01-3.77,6.2-5.7,10.59-4.56,4.23,1,7.08,4.52,7.08,8.71h-7.08c0-1.3-1.05-1.67-1.68-1.84-.21,0-1.88-.46-2.6.96-.46.88-.13,2.01.71,2.55.8.46,1.76.8,2.81,1.13.96.29,1.93.59,2.93,1.05,3.69,1.68,5.9,5.11,5.9,9.09s-2.22,7.37-5.9,9.05c-1.47.67-2.97.96-4.48.96-1.97,0-3.94-.5-5.65-1.63Z"/>
    <path class="cls-1" d="m92.49,45.75c-3.02-1.97-4.77-5.19-4.77-8.88h7.08c0,1.68.96,2.55,1.51,2.89,1,.67,2.22.71,3.35.21,1.59-.67,1.76-2.05,1.76-2.6,0-.59-.17-1.84-1.76-2.64-.63-.29-1.3-.46-2.09-.75-1.38-.46-2.93-.92-4.44-1.88-3.94-2.47-5.4-7.66-3.27-11.81,2.01-3.77,6.2-5.7,10.59-4.56,4.23,1,7.08,4.52,7.08,8.71h-7.08c0-1.3-1.05-1.67-1.68-1.84-.21,0-1.88-.46-2.6.96-.46.88-.13,2.01.71,2.55.8.46,1.76.8,2.81,1.13.96.29,1.93.59,2.93,1.05,3.69,1.68,5.9,5.11,5.9,9.09s-2.22,7.37-5.9,9.05c-1.47.67-2.97.96-4.48.96-1.97,0-3.94-.5-5.65-1.63Z"/>
  </g>
</svg>