<?xml version="1.0" encoding="UTF-8"?>
<svg id="Calque_1" data-name="Calque 1" xmlns="http://www.w3.org/2000/svg" viewBox="0 0 172 172">
  <defs>
    <style>
      .cls-1 {
        fill: #0ae448;
      }

      .cls-2 {
        fill: #03e843;
      }

      .cls-3 {
        fill: #0e100f;
      }
    </style>
  </defs>
  <rect class="cls-3" width="172" height="172" rx="38.93" ry="38.93"/>
  <g>
    <g>
      <path class="cls-2" d="m57.52,78.67s2.53-8.42-4.84-13.68c-5.42-3.87-16.63-2.32-21.47,4.63-4.21,6.04-8,15.58-7.16,26.95s12.63,14.31,20.63,11.37,10.53-15.16,10.53-15.16h3.58l1.68-9.05h-17.68l-1.68,8.84h4.21s-1.26,5.89-6.32,6.32-4.63-7.16-4.21-10.95,2.11-11.37,5.47-13.47,6.74-1.26,6.32,4.21h10.95-.01Z"/>
      <path class="cls-2" d="m100.41,63.35l-21.3,45.65h12.39l1.96-5.22h10.87v5.22h10.43v-45.65h-14.35Zm4.35,30.43h-7.39l7.39-18.26v18.26Z"/>
      <path class="cls-1" d="m136.06,63.14h-9.56l-10.22,45.87h11.3l.98-5.16-5.11-4.18h8.41c6.09-.87,18.98-4.8,18.98-19.13,0-16.96-11.3-17.39-14.78-17.39h0Zm3.48,19.13c-2.17,7.39-7.83,7.83-7.83,7.83l3.04-13.48-5.65-3.48h6.96c1.74,0,5.65,1.74,3.48,9.13h0Z"/>
      <path class="cls-1" d="m72.53,71.46c1.99,0,2.58,1.99,2.58,4.97h9.53s2.38-13.51-11.12-13.51-13.51,9.93-13.51,11.52-.4,7.55,3.58,11.52h-.05s5.16,5.76,6.36,7.35c1.19,1.59,1.19,2.78,1.19,3.97s-.4,3.18-2.38,3.18-2.58-1.99-2.58-4.97h-9.53s-2.38,13.51,11.12,13.51,13.51-9.93,13.51-11.52.4-7.55-3.58-11.52h.05s-5.16-5.76-6.36-7.35c-1.19-1.59-1.19-2.78-1.19-3.97s.4-3.18,2.38-3.18Z"/>
    </g>
    <circle class="cls-1" cx="135.19" cy="105.52" r="3.48"/>
  </g>
</svg>