<?xml version="1.0" encoding="UTF-8"?>
<svg id="Calque_1" data-name="Calque 1" xmlns="http://www.w3.org/2000/svg" viewBox="0 0 148 169.67">
  <defs>
    <style>
      .cls-1 {
        fill: #fff;
      }

      .cls-2 {
        fill: #fe3336;
      }
    </style>
  </defs>
  <path class="cls-2" d="m126.1,158.1l-49.12,11.25c-1.89.43-3.85.43-5.74,0l-49.33-11.25c-5.44-1.24-9.46-5.85-9.96-11.4L.05,14.03C-.62,6.49,5.31,0,12.88,0h122.24c7.57,0,13.5,6.49,12.83,14.03l-11.9,132.66c-.5,5.56-4.52,10.16-9.95,11.4Z"/>
  <path class="cls-1" d="m52.75,114.33h14.63c0,3.72,2.94,6.66,6.66,6.66s6.58-2.94,6.58-6.66-2.86-6.32-6.58-6.32h-21.29v-36.18h39.64v14.63h-25.01v6.92h6.66c11.68,0,21.21,9.43,21.21,20.95s-9.52,21.29-21.21,21.29-21.29-9.52-21.29-21.29Z"/>
  <g>
    <path class="cls-1" d="m50.01,16.05v30.74h-7.08v-11.6h-8.88v11.6h-7.08v-30.74h7.08v12.06h8.88v-12.06h7.08Z"/>
    <path class="cls-1" d="m71.54,23.05h-5.9v23.74h-7.08v-23.74h-5.86v-7.12h18.84v7.12Z"/>
    <path class="cls-1" d="m102.11,16.01l1.8,30.78h-7.08l-.75-12.56-4.27,12.56h-7.08l-4.52-13.07-.84,13.07h-7.12l1.97-30.78h7.29l6.74,19.26,6.58-19.26h7.29Z"/>
    <path class="cls-1" d="m123.89,46.79h-18.3v-30.78h7.08v23.7h11.22v7.08Z"/>
  </g>
</svg>