<?xml version="1.0" encoding="UTF-8"?>
<svg id="Calque_1" data-name="Calque 1" xmlns="http://www.w3.org/2000/svg" viewBox="0 0 172 172">
  <defs>
    <style>
      .cls-1 {
        fill: #510b2e;
      }

      .cls-2 {
        fill: #ff366b;
      }
    </style>
  </defs>
  <rect class="cls-1" width="172" height="172" rx="38.93" ry="38.93"/>
  <g>
    <path class="cls-2" d="m75.94,99.92h-7.08v-34.34h7.08v34.34Z"/>
    <path class="cls-2" d="m80.99,86.97c0-3.98.89-7.15,2.68-9.5,1.78-2.36,4.23-3.54,7.32-3.54,2.48,0,4.54.93,6.16,2.78v-13.02h6.84v36.23h-6.16l-.33-2.71c-1.7,2.12-3.88,3.18-6.56,3.18-3,0-5.41-1.18-7.23-3.55-1.82-2.37-2.72-5.66-2.72-9.87Zm6.82.51c0,2.39.42,4.23,1.25,5.5s2.04,1.91,3.63,1.91c2.11,0,3.59-.89,4.46-2.67v-10.09c-.85-1.78-2.32-2.67-4.41-2.67-3.29,0-4.93,2.67-4.93,8.01Z"/>
  </g>
</svg>