<?xml version="1.0" encoding="UTF-8"?>
<svg id="Calque_1" data-name="Calque 1" xmlns="http://www.w3.org/2000/svg" viewBox="0 0 148 169.67">
  <defs>
    <style>
      .cls-1 {
        fill: #fff;
      }

      .cls-2 {
        fill: #fa9c28;
      }
    </style>
  </defs>
  <path class="cls-2" d="m126.1,158.1l-49.12,11.25c-1.89.43-3.85.43-5.74,0l-49.33-11.25c-5.44-1.24-9.46-5.85-9.96-11.4L.05,14.03C-.62,6.49,5.31,0,12.88,0h122.24c7.57,0,13.5,6.49,12.83,14.03l-11.9,132.66c-.5,5.56-4.52,10.16-9.95,11.4Z"/>
  <g>
    <path class="cls-1" d="m65.14,47.23v45.84c0,11.68-9.45,21.14-21.14,21.14s-21.14-9.45-21.14-21.14h13.91c0,3.92,3.21,7.14,7.22,7.14s7.13-3.21,7.13-7.14v-45.84h14Z"/>
    <path class="cls-1" d="m81.73,111.36c-6.42-4.19-10.17-11.06-10.17-18.91h15.07c0,3.57,2.05,5.44,3.21,6.15,2.14,1.43,4.73,1.52,7.14.45,3.39-1.43,3.75-4.37,3.75-5.53,0-1.25-.36-3.92-3.75-5.62-1.34-.62-2.76-.98-4.46-1.61-2.94-.98-6.24-1.96-9.45-4.01-8.38-5.26-11.51-16.32-6.96-25.15,4.28-8.03,13.2-12.13,22.56-9.72,9.01,2.14,15.07,9.63,15.07,18.55h-15.07c0-2.76-2.23-3.57-3.57-3.92-.45,0-4.01-.98-5.53,2.05-.98,1.87-.27,4.28,1.52,5.44,1.69.98,3.75,1.69,5.98,2.41,2.05.62,4.1,1.25,6.24,2.23,7.85,3.57,12.58,10.88,12.58,19.35s-4.73,15.7-12.58,19.26c-3.12,1.43-6.33,2.05-9.54,2.05-4.19,0-8.38-1.07-12.04-3.48Z"/>
  </g>
</svg>