<?xml version="1.0" encoding="UTF-8"?>
<svg id="Calque_1" data-name="Calque 1" xmlns="http://www.w3.org/2000/svg" viewBox="0 0 172 172">
  <defs>
    <style>
      .cls-1 {
        fill: #99f;
      }

      .cls-2 {
        fill: #00005b;
      }
    </style>
  </defs>
  <rect class="cls-2" width="172" height="172" rx="38.93" ry="38.93"/>
  <g>
    <path class="cls-1" d="m71.76,87.82v12.1h-7.08v-34.34h13.4c2.58,0,4.85.47,6.8,1.42s3.46,2.28,4.52,4.02c1.05,1.74,1.58,3.71,1.58,5.93,0,3.36-1.15,6.02-3.46,7.96-2.3,1.94-5.49,2.91-9.56,2.91h-6.2Zm0-5.73h6.32c1.87,0,3.3-.44,4.28-1.32.98-.88,1.47-2.14,1.47-3.77s-.5-3.04-1.49-4.08c-.99-1.04-2.36-1.57-4.1-1.6h-6.49v10.78Z"/>
    <path class="cls-1" d="m109.73,80.79c-.93-.13-1.75-.19-2.45-.19-2.58,0-4.27.87-5.07,2.62v16.7h-6.82v-25.52h6.44l.19,3.04c1.37-2.34,3.26-3.51,5.68-3.51.75,0,1.46.1,2.12.31l-.09,6.56Z"/>
  </g>
</svg>