<?xml version="1.0" encoding="UTF-8"?>
<svg id="Calque_1" data-name="Calque 1" xmlns="http://www.w3.org/2000/svg" viewBox="0 0 172 172">
  <defs>
    <style>
      .cls-1 {
        fill: #04263d;
      }

      .cls-2 {
        fill: #31a8ff;
      }
    </style>
  </defs>
  <rect class="cls-1" width="172" height="172" rx="38.93" ry="38.93"/>
  <g>
    <path class="cls-2" d="m68.15,87.82v12.1h-7.08v-34.34h13.4c2.58,0,4.85.47,6.8,1.42s3.46,2.28,4.52,4.02c1.05,1.74,1.58,3.71,1.58,5.93,0,3.36-1.15,6.02-3.46,7.96-2.3,1.94-5.49,2.91-9.56,2.91h-6.2Zm0-5.73h6.32c1.87,0,3.3-.44,4.28-1.32.98-.88,1.47-2.14,1.47-3.77s-.5-3.04-1.49-4.08c-.99-1.04-2.36-1.57-4.1-1.6h-6.49v10.78Z"/>
    <path class="cls-2" d="m105.6,92.87c0-.83-.41-1.49-1.24-1.97-.83-.48-2.15-.91-3.97-1.29-6.07-1.27-9.1-3.85-9.1-7.74,0-2.26.94-4.15,2.82-5.67,1.88-1.52,4.34-2.28,7.37-2.28,3.24,0,5.83.76,7.77,2.29,1.94,1.53,2.91,3.51,2.91,5.94h-6.82c0-.97-.31-1.78-.94-2.42-.63-.64-1.61-.96-2.95-.96-1.15,0-2.04.26-2.67.78s-.94,1.18-.94,1.98c0,.75.36,1.36,1.07,1.83.72.46,1.92.86,3.62,1.2,1.7.34,3.13.72,4.29,1.14,3.6,1.32,5.4,3.61,5.4,6.86,0,2.33-1,4.21-3,5.65-2,1.44-4.58,2.16-7.74,2.16-2.14,0-4.04-.38-5.7-1.14-1.66-.76-2.96-1.81-3.9-3.14s-1.42-2.76-1.42-4.3h6.46c.06,1.21.51,2.14,1.34,2.78.83.65,1.95.97,3.35.97,1.3,0,2.29-.25,2.96-.74s1-1.14,1-1.95Z"/>
  </g>
</svg>