<?xml version="1.0" encoding="UTF-8"?>
<svg id="Calque_1" data-name="Calque 1" xmlns="http://www.w3.org/2000/svg" viewBox="0 0 172 172">
  <defs>
    <style>
      .cls-1, .cls-2 {
        fill: #61dafb;
      }

      .cls-3 {
        fill: #23272d;
      }

      .cls-2 {
        font-family: Roboto-Bold, Roboto;
        font-size: 21.55px;
        font-weight: 700;
      }
    </style>
  </defs>
  <rect class="cls-3" width="172" height="172" rx="38.93" ry="38.93"/>
  <g>
    <path class="cls-1" d="m106.31,114.16c-4.47,0-9.89-2.45-15.78-7.21-7.87-6.36-15.86-16.19-22.49-27.69-6.64-11.5-11.16-23.33-12.73-33.33-1.67-10.61.21-18.08,5.31-21.02,5.09-2.94,12.5-.84,20.86,5.91,7.87,6.36,15.86,16.19,22.49,27.69,6.64,11.5,11.16,23.33,12.73,33.33,1.67,10.61-.21,18.08-5.31,21.02-1.5.87-3.21,1.3-5.08,1.3Zm-34.9-36.84c6.41,11.09,14.07,20.54,21.57,26.61,6.91,5.59,12.92,7.62,16.47,5.57,3.55-2.05,4.79-8.26,3.41-17.04-1.5-9.53-5.85-20.89-12.26-31.99-6.41-11.09-14.07-20.54-21.57-26.61-6.91-5.59-12.92-7.62-16.47-5.57-3.55,2.05-4.79,8.26-3.41,17.04,1.5,9.53,5.85,20.89,12.26,31.99Z"/>
    <path class="cls-1" d="m65.64,114.13c-1.88,0-3.59-.43-5.1-1.3-5.09-2.95-6.96-10.42-5.28-21.03,1.59-9.99,6.13-21.82,12.78-33.31,6.65-11.49,14.66-21.31,22.53-27.66,8.37-6.74,15.78-8.83,20.87-5.88,5.09,2.95,6.96,10.42,5.28,21.03-1.59,9.99-6.13,21.82-12.78,33.31-6.65,11.49-14.66,21.31-22.53,27.66-5.89,4.75-11.31,7.19-15.77,7.19ZM106.32,27.54c-3.5,0-8.14,2.18-13.29,6.33-7.51,6.05-15.19,15.49-21.61,26.58-6.42,11.08-10.79,22.44-12.31,31.97-1.4,8.78-.16,14.99,3.39,17.05,3.55,2.06,9.55.03,16.47-5.54,7.51-6.05,15.19-15.49,21.61-26.58h0c6.42-11.08,10.79-22.44,12.31-31.97,1.4-8.78.16-14.99-3.39-17.05-.91-.53-1.98-.79-3.19-.79Z"/>
    <path class="cls-1" d="m84.66,89.64c-12.68,0-24.59-1.84-33.7-5.22-10.07-3.74-15.66-9.04-15.73-14.92-.07-5.88,5.39-11.31,15.36-15.3,9.4-3.75,21.88-5.9,35.16-6.06,13.28-.15,25.81,1.69,35.29,5.21,10.07,3.74,15.66,9.04,15.73,14.92.07,5.88-5.39,11.31-15.36,15.3-9.4,3.75-21.88,5.9-35.16,6.06-.53,0-1.07,0-1.6,0Zm2.7-37.61c-.52,0-1.04,0-1.56,0-12.81.15-24.8,2.21-33.76,5.79-8.26,3.29-12.97,7.53-12.92,11.63.05,4.1,4.86,8.22,13.19,11.32,9.05,3.36,21.08,5.13,33.89,4.97,12.81-.15,24.8-2.21,33.76-5.79,8.26-3.29,12.97-7.53,12.92-11.63-.05-4.1-4.86-8.22-13.19-11.32-8.68-3.22-20.11-4.98-32.34-4.98Z"/>
    <circle class="cls-1" cx="86" cy="68.89" r="8.54"/>
    <text class="cls-2" transform="translate(45.62 142.54)"><tspan x="0" y="0">ReactJS</tspan></text>
  </g>
</svg>