<?xml version="1.0" encoding="UTF-8"?>
<svg id="Calque_1" data-name="Calque 1" xmlns="http://www.w3.org/2000/svg" viewBox="0 0 171.77 171.77">
  <defs>
    <style>
      .cls-1 {
        fill: #457ffe;
      }

      .cls-2 {
        fill: #05020d;
        font-family: Roboto-Bold, Roboto;
        font-size: 42.84px;
        font-weight: 700;
      }

      .cls-3 {
        fill: #fd39f2;
      }

      .cls-4 {
        fill: #fdc31e;
      }

      .cls-5 {
        fill: #3bfac6;
      }
    </style>
  </defs>
  <g>
    <circle class="cls-1" cx="85.88" cy="85.88" r="85.88"/>
    <path class="cls-3" d="m59.72,167.69c8.25,2.64,17.04,4.07,26.16,4.07,47.43,0,85.88-38.45,85.88-85.88,0-22.18-8.41-42.4-22.22-57.64-18.92,1.05-44.13,45.17-48.63,83.41-2.78,23.61-22.07,42.68-41.19,56.05Z"/>
    <path class="cls-5" d="m97.25.77c-3.72-.49-7.51-.77-11.37-.77C38.45,0,0,38.45,0,85.88c0,8.96,1.38,17.6,3.92,25.72,6.66,6.09,15.99,9.96,27.12,2.01,22.97-16.4,29.53-42.65,36.09-68.9,4.6-18.39,15.64-35.16,30.12-43.93Z"/>
    <path class="cls-3" d="m0,85.88c0,4.67.39,9.25,1.1,13.71,3.49,1.32,7.84,1.42,13.22-.79,19.92-8.2,31.63-38.66,36.32-51.55,3.9-10.72,15.92-37.66,29.97-47.08C35.63,2.9,0,40.22,0,85.88Z"/>
    <path class="cls-4" d="m69.11,1.65C30.89,9.21,1.8,42.13.09,82.16c2.4,0,4.86-.47,7.32-1.58,16.23-7.38,25.08-22.13,38.36-44.26,6.89-11.48,13.78-24.54,23.34-34.66Z"/>
  </g>
  <text class="cls-2" transform="translate(25.72 98.4)"><tspan x="0" y="0">Spline</tspan></text>
</svg>